<svg xmlns="http://www.w3.org/2000/svg" viewBox="0 0 65 59.59"><defs><style>.cls-1{font-size:13.55px;font-family:AppetiteNew, Appetite New;}.cls-1,.cls-10,.cls-11,.cls-5,.cls-6,.cls-8,.cls-9{fill:#41140b;}.cls-2{letter-spacing:-0.05em;}.cls-3{letter-spacing:0.01em;}.cls-4{letter-spacing:-0.01em;}.cls-5{font-size:6.51px;}.cls-10,.cls-5,.cls-6,.cls-8,.cls-9{font-family:HandelsonSix_CYR-Six, Handelson Six_CYR;}.cls-6{font-size:3.79px;}.cls-7{fill:#562f27;}.cls-8{font-size:6.51px;}.cls-9{font-size:3.79px;}.cls-10{font-size:3.25px;letter-spacing:0.1em;}</style></defs><title>логотип на 57Ресурс 5</title><g id="Слой_2" data-name="Слой 2"><g id="Слой_1-2" data-name="Слой 1"><text class="cls-1" transform="translate(1.34 37.28) rotate(-6.67)"><tspan class="cls-2">Р</tspan><tspan x="12.08" y="0">ад</tspan><tspan class="cls-3" x="28.39" y="0">о</tspan><tspan class="cls-4" x="36.71" y="0">с</tspan><tspan x="43.91" y="0">ть</tspan></text><text class="cls-5" transform="matrix(0.03, -1, 1, 0.03, 10.76, 29.42)"> </text><text class="cls-5" transform="matrix(0.08, -1, 1, 0.08, 10.8, 28.3)"> </text><text class="cls-5" transform="translate(10.89 27.22) rotate(-82.54)"> </text><text class="cls-5" transform="translate(11.03 26.12) rotate(-79.75)"> </text><text class="cls-5" transform="translate(11.23 25.06) rotate(-77.01)"> </text><text class="cls-5" transform="translate(11.47 23.99) rotate(-74.24)"> </text><text class="cls-5" transform="matrix(0.32, -0.95, 0.95, 0.32, 11.77, 22.92)"> </text><text class="cls-5" transform="translate(12.11 21.9) rotate(-68.71)"> </text><text class="cls-5" transform="matrix(0.41, -0.91, 0.91, 0.41, 12.52, 20.86)"> </text><text class="cls-5" transform="translate(12.95 19.88) rotate(-63.19)"> </text><text class="cls-5" transform="translate(13.45 18.89) rotate(-60.41)"> </text><text class="cls-5" transform="matrix(0.54, -0.84, 0.84, 0.54, 13.99, 17.93)"> </text><text class="cls-5" transform="translate(14.58 17.01) rotate(-54.89)"> </text><text class="cls-5" transform="translate(15.21 16.11) rotate(-52.14)"> </text><text class="cls-6" transform="matrix(0.66, -0.75, 0.75, 0.66, 15.86, 15.25)">п</text><text class="cls-6" transform="matrix(0.73, -0.68, 0.68, 0.73, 17.4, 13.54)">р</text><text class="cls-6" transform="matrix(0.8, -0.6, 0.6, 0.8, 19.03, 12.05)">я</text><text class="cls-6" transform="translate(20.83 10.7) rotate(-31.42)">н</text><text class="cls-6" transform="translate(22.85 9.48) rotate(-25.51)">и</text><text class="cls-6" transform="matrix(0.94, -0.34, 0.34, 0.94, 24.94, 8.5)">ч</text><text class="cls-6" transform="translate(27.11 7.74) rotate(-13.86)">н</text><text class="cls-6" transform="matrix(0.99, -0.14, 0.14, 0.99, 29.39, 7.19)">о</text><text class="cls-6" transform="translate(31.6 6.9) rotate(-3.05)">-</text><text class="cls-6" transform="translate(33.43 6.81) rotate(1.85)">з</text><text class="cls-6" transform="matrix(0.99, 0.12, -0.12, 0.99, 35.56, 6.89)">е</text><text class="cls-6" transform="translate(37.58 7.13) rotate(13.48)">ф</text><text class="cls-6" transform="translate(40.55 7.88) rotate(20.28)">и</text><text class="cls-6" transform="translate(42.73 8.7) rotate(26.02)">р</text><text class="cls-6" transform="translate(44.71 9.68) rotate(31.75)">н</text><text class="cls-6" transform="matrix(0.79, 0.61, -0.61, 0.79, 46.68, 10.92)">о</text><text class="cls-6" transform="translate(48.45 12.3) rotate(42.81)">е</text><path class="cls-7" d="M60.49,19.11c0,.1.11,0,.13,0C60.53,19,60.47,19.12,60.49,19.11Z"/><polygon class="cls-7" points="59.55 17.58 59.6 17.59 59.4 17.4 59.55 17.58"/><path class="cls-7" d="M58.75,16.14c-.07.22.33.5.42.79V17l.18.05A8.49,8.49,0,0,1,58.75,16.14Z"/><path class="cls-7" d="M58.62,15.19c0,.08-.15-.13.09.18v0Z"/><path class="cls-7" d="M58.71,15.33c.09.15,0-.13,0,0Z"/><path class="cls-7" d="M58.25,14.67l.17.16c0-.07-.09-.24,0-.2C58.24,14.46,58.23,14.52,58.25,14.67Z"/><path class="cls-7" d="M58,14.57l.08.08S58.1,14.59,58,14.57Z"/><path class="cls-7" d="M58.29,14.83l-.19-.18s-.05.08.08.08C58.13,14.75,58.2,14.76,58.29,14.83Z"/><path class="cls-7" d="M58.34,15c0,.13.1.29-.07.13C58.52,15.44,58.59,15.32,58.34,15Z"/><path class="cls-7" d="M58.55,16.17l.05.17.12.09C58.66,16.39,58.59,16.13,58.55,16.17Z"/><path class="cls-7" d="M57.54,13.43s0,.12-.08.17l.14.11C57.57,13.62,57.5,13.47,57.54,13.43Z"/><path class="cls-7" d="M57.46,13.6l-.19-.17C57.39,13.62,57.44,13.63,57.46,13.6Z"/><polygon class="cls-7" points="57.83 14.65 58.17 14.91 57.78 14.58 57.83 14.65"/><polygon class="cls-7" points="57 12.63 57.16 12.69 56.89 12.56 57 12.63"/><path class="cls-7" d="M56.61,12.12c.13,0,0-.21.13-.14a1,1,0,0,0-.38-.28A.81.81,0,0,1,56.61,12.12Z"/><path class="cls-7" d="M56.15,11.57a1.93,1.93,0,0,0,.21.13A.74.74,0,0,0,56.15,11.57Z"/><path class="cls-7" d="M57,13.07a.29.29,0,0,0,0-.24L57,13Z"/><path class="cls-7" d="M57,13h0l-.12-.18Z"/><path class="cls-7" d="M57.05,13.09v0S57,13.09,57.05,13.09Z"/><path class="cls-7" d="M57.54,14c-.13-.09-.36-.3-.27,0C57.39,14.08,57.34,13.91,57.54,14Z"/><path class="cls-7" d="M57,13.27l.14.23s0-.08.09,0Z"/><polygon class="cls-7" points="56.9 13.19 57 13.27 56.95 13.19 56.9 13.19"/><path class="cls-7" d="M56.33,12a1,1,0,0,1-.28-.27,2.59,2.59,0,0,0,.25.39S56.43,12.14,56.33,12Z"/><path class="cls-7" d="M56.64,12.49l0,0S56.63,12.5,56.64,12.49Z"/><polygon class="cls-7" points="55.2 10.63 55.19 10.66 55.21 10.65 55.2 10.63"/><path class="cls-7" d="M56.3,12.17a.33.33,0,0,0,.18.17l-.18-.21S56.27,12.14,56.3,12.17Z"/><path class="cls-7" d="M55.87,11.29a1.59,1.59,0,0,0,.07.2C55.93,11.42,55.91,11.29,55.87,11.29Z"/><path class="cls-7" d="M56.62,12.42h0S56.63,12.4,56.62,12.42Z"/><path class="cls-7" d="M56.62,12.42a.39.39,0,0,0-.14-.08.83.83,0,0,0,.14.13Z"/><path class="cls-7" d="M54.3,10.81c.11-.06.38.11.45.39s.41-.23.44-.54c0,0-.08.05-.3-.11,0,.11.25.55,0,.44s-.14-.24-.2-.41c0,.2-.45-.21-.57,0l.25.18S54.27,10.73,54.3,10.81Z"/><path class="cls-7" d="M55.49,11.06l.08.08a1.14,1.14,0,0,1-.11-.4c-.15-.11-.21-.11-.25-.09l.32.43Z"/><path class="cls-7" d="M55.87,11.53c-.15,0-.35-.17-.36,0,.2.25.22.11.37.23-.33-.39.15.08,0-.26a1.7,1.7,0,0,1,.19.2,2.72,2.72,0,0,1-.11-.25v0h0s0,0,0,0h-.06c-.07-.14,0,0,.05,0h0l-.37-.37A2.39,2.39,0,0,0,55.87,11.53Z"/><path class="cls-7" d="M56.91,14s0,0,0,0S56.88,13.91,56.91,14Z"/><path class="cls-7" d="M56.85,13.75a.23.23,0,0,1,.14.12c0,.11,0,0-.07.06s.21.16.13-.06l0,0c-.09-.19-.13-.49-.09-.47A.78.78,0,0,0,56.85,13.75Z"/><path class="cls-7" d="M56.33,12.65l-.3-.31,0,.24,0-.05C56.24,12.74,56.27,12.65,56.33,12.65Z"/><polygon class="cls-7" points="55.21 10.55 55.35 10.51 55.05 10.43 55.21 10.55"/><polygon class="cls-7" points="54.85 10.12 54.95 10.06 54.8 9.99 54.85 10.12"/><path class="cls-7" d="M26.26,3.78l-.11.09A.26.26,0,0,0,26.26,3.78Z"/><path class="cls-7" d="M27.11,3.57v-.1C27.08,3.53,27.07,3.58,27.11,3.57Z"/><path class="cls-7" d="M43.54,2.15c-.11-.21-.22-.51-.26-.34l0,.19A.45.45,0,0,1,43.54,2.15Z"/><path class="cls-7" d="M34.13,1.37l.06.06.12-.19Z"/><path class="cls-7" d="M34,2.22,33.8,2.1A1,1,0,0,0,34,2.22Z"/><path class="cls-7" d="M21.9,5.6l0,.28C22.07,5.79,21.94,5.72,21.9,5.6Z"/><path class="cls-7" d="M50.53,6.2a1.46,1.46,0,0,0-.28-.31C50.36,6.08,50.42,6.27,50.53,6.2Z"/><path class="cls-7" d="M26,1.33a.19.19,0,0,0-.07.16C26,1.44,26,1.38,26,1.33Z"/><path class="cls-7" d="M49.87,5.62l.05.08a1.4,1.4,0,0,1,.33.19A.48.48,0,0,0,49.87,5.62Z"/><path class="cls-7" d="M10,17.07l0,0S10,17.1,10,17.07Z"/><path class="cls-7" d="M5,20.46a.73.73,0,0,1,.06-.22S5,20.34,5,20.46Z"/><path class="cls-7" d="M53.34,8.36c.09.08,0,0,0,0Z"/><path class="cls-7" d="M53.38,9.17a.08.08,0,0,0-.08,0A.08.08,0,0,1,53.38,9.17Z"/><path class="cls-7" d="M48.37,5.78h0C48.38,5.82,48.38,5.81,48.37,5.78Z"/><path class="cls-7" d="M53.43,8.53a.51.51,0,0,0-.09-.13Z"/><path class="cls-7" d="M53.45,8.47l.07.09S53.55,8.53,53.45,8.47Z"/><path class="cls-7" d="M53.21,8.25l.13.15s0,0,0,0Z"/><path class="cls-7" d="M14.94,9.23h0C14.9,9.39,14.92,9.34,14.94,9.23Z"/><polygon class="cls-7" points="40.06 2.85 40.07 2.85 40.06 2.84 40.06 2.85"/><path class="cls-7" d="M39.63,2.89c.23-.18.31-.13.43-.05V2.29Z"/><path class="cls-7" d="M24.28,4.46l.33.11c-.22.44-.48.41-.14.61-.19-.73,1-.42.83-1.13l.22.1c-.05,0-.05,0-.1.06.45.23.12-.59.61-.62.18,0,.31.08.23.19l.31-.27c.11,0,.11.12,0,.13l.54-.19v0A2.32,2.32,0,0,1,27.37,3c.16.07-.06.09,0,.17L27.64,3c.16.15-.05.38-.27.41.44.62.22-.24.91,0L28,3.55c.26.34.45.15.82.32-.1-.11-.77-.47-.47-.71A.33.33,0,0,0,28.75,3c.05.24.21.15.42.09l0,.32c.21-.14.17-.3.28-.47.27,0,.36.22.46.42.42,0-.36-.34.13-.49.37.05.59-.11,1-.37.26.08,0,.2.08.28l.19-.28c.06,0,0,.08,0,.12.18-.12,0-.32.26-.44.05-.35.65.43,1,0,.1.08,0,.19,0,.31a3.46,3.46,0,0,0,.8-.59l.36.18c-.27-.21.05-.5.33-.73a1.35,1.35,0,0,0-.23-.24L34.37,1c.06.05,0,.15-.06.28l.08-.08c.17.11.09.28,0,.45l-.17-.18A1,1,0,0,0,34,2a.27.27,0,0,1,.15-.09.19.19,0,0,0,0,.13s.07,0,.14-.12l.11.33,0-.13.6.19a3,3,0,0,1,1.52-.91c-.18.22-.06.38-.08.66-.17-.3-.54.11-.88,0,.18,0,.14.17.09.22l.63-.26c0,.23.13.18.28.28-.09-.45.49-.28.75-.38,0,.15-.07.29-.37.23.3.36.48-.47.78-.15-.07,0-.11,0-.15,0,.19-.12.61,0,.48.15H38c.48.12,1.48.28,1.65,0,0,0-.18.4-.22.47.38-.32.79-.64,1.21-.93-.17.27-.09,1.06-.54,1.11a.64.64,0,0,0,.5.13c-.06-.06-.06-.48,0-.47.2.42.16.24.43.62-.1-.09.18-.51.37-.43-.05.06-.14.45-.23.47l.62-.27c-.14,0-.15.36-.1.52,0-.1.39.15.53.15l-.16-.17c.5.24.75-.39,1.25-.16-.09.06-.37.46-.13.62.2-.17,1-.79,1.48-.72l0,.16.41,0a12.3,12.3,0,0,1-1.7.68c.15.17,0,.16.28.28,0,.15-.23.1-.32.07l.62.35c.08-.25.61,0,.68-.22l-.82-.07A.89.89,0,0,1,45,4.2c.07.15-.29.36-.32.45s.51.06.52.14l-.25,0c.21.21.57-.09.76.27.1.07.16.45.25.33a2.08,2.08,0,0,1,.57-1.27,4.43,4.43,0,0,1,.47.73c.07.29-.51.32-.46.57,0-.06.17-.08.23-.08s-.15.16.1.26c.17-.2.47.29.22-.12.26.07.22.18.49.33,0-.19.52-.32.79-.24,0,0,0,.14,0,.19.45.32.65.56,1.07.84,0,.08.17.27,0,.29a.54.54,0,0,1,.32.07c.13.33-.31-.17-.26.16.1-.11.44.07.68.12.06-.2-.41-.32-.64-.37.16-.24.66-.28,1.17-.06s0,.26.13.27c.61.52.85,0,1.24.62.1.3-.21.27-.24.41-.31-.17-.34-.43-.54-.57l.18.25a.69.69,0,0,1-.4-.25c.08.26,1,.86,1.4,1.39.12,0,.3.11.28,0l-.16-.11c0-.23.4.1.26-.11a1.49,1.49,0,0,1,.79.54l-.09.19c0-.05-.09-.26-.21-.29.18.05.22.58.51.54l-.08-.28a1.72,1.72,0,0,1,.79.55c0-.23-.06,0-.06-.37C54.48,10,54,9,54,9.39c0-.35-.21-.38-.29-.77,0,.05,0,.17-.18-.06h-.08v0s0,0,0,0a.31.31,0,0,1,0,.17c-.2,0-.53-.3-.69-.35s.1,0,.08-.12l-.24-.07c.08-.12-.17-.48.17-.27a3.07,3.07,0,0,0-.26-.25A1.1,1.1,0,0,0,52,7.2c-.1-.14-.42-.14-.24-.15l-.49-.26v0c-.42-.37-1-.46-1.4-1.06a1.77,1.77,0,0,1-.59-.34l0-.15c-.22-.09-.52-.51-.68-.44,0-.45-.93-.69-1.27-.94l-.1.15a3.35,3.35,0,0,0-.85-.34l-.06.16c-.33,0-.64-.48-1.07-.69.05,0,.16,0,.21.11-.34-.62-1.21-.28-1.56-.76a.32.32,0,0,1-.29-.13h0l0,0-.13-.16a1,1,0,0,0,.11.15,1.79,1.79,0,0,0-.4-.1V2h0c-.11-.13-.14,0-.13.2a.73.73,0,0,0-.22,0c0-.33-.41,0-.44-.42-.15.12-.74-.16-.94.16,0-.05,0-.08.06-.06a.63.63,0,0,0-.47-.14V1.5l-.44.21c-.17-.22-.23-.33,0-.45-.6.13-.46,0-1,.16l.06-.16c-.16,0-.46.11-.52,0A2,2,0,0,0,38.17.8,8.31,8.31,0,0,1,36.59.45c.15.53-.42-.27-.48.14,0-.13-.18-.21,0-.31-.48.1-.72-.23-1.05.11-.06-.13.1-.18.05-.26s-.15.11-.2,0S35,.05,35,0c-.49,0-.53.41-.56.78-.25-.17-.37-.15-.54.1-.09-.12-.24-.24.06-.29-.17,0-1-.15-1,.16-.06-.07-.23,0-.28,0a3.4,3.4,0,0,0-.78,0l.11,0c-.11.39-.3.11-.59.19V1c-.71-.19-.28.16-1-.06l.07.23c0,.51-.63-.22-1,0l.16.12c-.18.2-.7-.61-.93-.64-.06,0,.06-.08.12-.12-.62-.21,0,.32-.42.47-.11-.16,0-.45-.27-.43s-.7.7-1.15.45c.11.12.23.23.06.37s-.91-.33-1.07.16a.15.15,0,0,1-.08-.1c-.2.17-.67.36-.74.63-.45-.81-1.25.79-1.48,0L23,2.37V2.29a.7.7,0,0,0-.61.58c-.12,0-.08-.12-.08-.17-.69.07-.75.12-1.09.73l-.17-.24c-.07.21-1.07,0-1.53.55a.23.23,0,0,1,0-.14c-.5.61-2,.11-1.69,1.17l-.28.47c.58-.25.17.44.48.46-.17.18-.7.06-.48-.15l.07,0c-.21-.54-.76.25-1-.08a31.94,31.94,0,0,0-3.08,2l.41.24L13.71,8c-.15,0-.35-.15-.12-.34-.3-.08-.22.49-.14.57-.54.27-.23-.54-.36-.42L12.94,8H13c0,.27.13.42-.13.65s-.28-.11-.36-.06,0,0-.1.08L12.05,9l.41.1c0,.28-.33.33.14.44-.73-.19-1.42,1.26-1.7,1.29a1.19,1.19,0,0,1-.44.93c.12,0,.49.19.26.42-.64-.64-.67.24-1.36.07.49.06-.47.83.25.88C9.39,13.32,9.33,13,9,13c-.09.74-1,1.07-1.37,1.83.1.08.33.06.4.3l-.76.06c0,.17.54.48,0,.52.11,0,.28,0,.26.15A4.67,4.67,0,0,0,6.32,18a4.09,4.09,0,0,1-1.49,2.09c.32-.12.29,0,.24.19.09-.08.3.11.47.15l-.7.49c.43.27-.19.73.24.93l0-.23c.46.42,1.31,0,2,.23-.52-.49,1.12-.44.43-1.19.17-.05.18.16.35.17-.24-.23-.25-.39,0-.6l.06.06c.21-.75.62-.94,1.15-1.63l-.33-.09c.12-.15.24-.14.35-.18-.36-.42-.26.46-.68,0,.72.09.61-1.19,1.38-1,.14-.25-.38-.11-.24-.36l.22,0-.2-.19c.13-.15.4-.1.56,0,0,0,0,.14,0,.19.32-.09.26-.64.37-.67l-.24.17c.23-.77.95-1.44,1.05-2.31l-.15,0c.11-.64.4-.29.67-.89l0,0a.54.54,0,0,1,.12-.51c0,.24.45,0,.47.25.15-.69,0-.39-.16-1.07l.25.08c-.08-.25-.17-.34,0-.63,0,.34.42.07.44.48.83-.19.24-1.12,1-.86-.29-.67-.66.21-.65,0-.26,0-.21-.52,0-.64s.87.28,1.22-.12c0,0,0,.07,0,.11.25,0,.1-.45.46-.44-.19-.38.23-.22-.09-.6l-.26.44c.09-.29-.13-.9.41-1a1.11,1.11,0,0,1,0,.41c.19,0,.11-.25.32-.24.31.39-.36.49-.29,1,.25,0,.13-.66.41-.17-.32-.64.41-.3.33-.92l.18.24c0-.08,0-.26.08-.32l.12.41c0-.44.59-.15.68-.46-.43.38-.32-.19-.65-.19.31-.77.8.32,1.32-.28-.06.1-.42.11-.37-.1a.83.83,0,0,1,.54,0c.38-.36-.24-.2-.16-.47.35.18.12-.27.25-.5l.17.23c.6-.18-.2-.59.38-.71l0,.47.18-.25.13.31c.13-.37.25-.37.55-.46a.39.39,0,0,1,0-.61c.25.05.05.29.36.06,0,.2,0,.44-.23.3,0,.08,0,.19,0,.28.27.07.45-.21.57-.28a.3.3,0,0,1-.16,0c.09-.21.19-.41.3-.61.12,0,.1.16.08.27.08-.09.09-.24.23-.34.06.23.18.43,0,.64L20.69,6c.08.08.36.13.33.23.31,0,.45-.71.88-.71A.24.24,0,0,1,22,5.38c.36-.1.75,0,1-.42l.36.28c.29-.2-.48-.35,0-.68.33-.26.25.26.41.31.12-.26.34-.74.78-.56C24.48,4.41,24.38,4.39,24.28,4.46Zm4.08-1.3c-.07.07-.2.26-.29.13C28.1,3,28.2,3.11,28.36,3.16Zm6.42-1.37c-.06.08-.15,0-.26,0A.35.35,0,0,1,34.78,1.79ZM52.26,7.57h0C52.14,7.39,52.17,7.46,52.26,7.57Zm.27.31s.06,0,.06,0-.12,0-.19-.12S52.41,7.83,52.53,7.88Zm-39.95.81h.12C12.64,8.87,12.61,8.78,12.58,8.69Z"/><path class="cls-7" d="M34.05,2.12A.28.28,0,0,1,34,2S34,2.08,34.05,2.12Z"/><path class="cls-7" d="M21.91,5.54h0v0Z"/><path class="cls-7" d="M46.67,5.59a.31.31,0,0,1-.09-.15S46.57,5.53,46.67,5.59Z"/><path class="cls-7" d="M54.27,9.24l-.21-.17a.38.38,0,0,1,.13.21S54.22,9.18,54.27,9.24Z"/><path class="cls-7" d="M55,11.54s0,.06.08.07l0,0C55.05,11.44,54.94,11.39,55,11.54Z"/><path class="cls-7" d="M54.07,9.75c-.08.1.06.19.19.31l0,0C54.4,10,54.24,9.86,54.07,9.75Z"/><path class="cls-7" d="M54.29,10.09a.69.69,0,0,1,.11.13C54.47,10.19,54.37,10.16,54.29,10.09Z"/><path class="cls-7" d="M53,8.17c0,.08.15-.09.15,0C53.3,8.1,52.56,7.91,53,8.17Z"/><polygon class="cls-7" points="53.86 10.13 53.93 9.98 53.77 9.99 53.86 10.13"/><path class="cls-7" d="M53,9l.17.24s0,0,.09,0C53.11,9.16,53,9,53,9Z"/><path class="cls-7" d="M53.23,9.28a.57.57,0,0,0,.18.15A1,1,0,0,0,53.23,9.28Z"/><path class="cls-7" d="M53.57,9.87l0-.08-.13-.15A2,2,0,0,1,53.57,9.87Z"/><path class="cls-7" d="M50.62,7.06l-.28-.14c-.06,0,0,.1.1.16S50.63,7.14,50.62,7.06Z"/><path class="cls-7" d="M51.1,8c-.05-.08,0-.11,0-.18L50.93,8Z"/><path class="cls-7" d="M50.35,7.5c-.06,0-.46-.13-.14.09C50.27,7.56,50.55,7.7,50.35,7.5Z"/><polygon class="cls-7" points="46.56 4.82 46.63 4.85 46.8 4.52 46.56 4.82"/><path class="cls-7" d="M42.49,4c.29.22.17-.2.43,0,.11-.05-.21-.19-.1-.23C42.58,3.77,42.5,3.68,42.49,4Z"/><path class="cls-7" d="M42.82,3.76l.13,0A.31.31,0,0,0,42.82,3.76Z"/><polygon class="cls-7" points="4.33 21.22 4.1 21.42 4.39 21.33 4.33 21.22"/><path class="cls-7" d="M4.72,21.84l-.48-.07.38.26C4.61,22,4.61,21.85,4.72,21.84Z"/><path class="cls-7" d="M29.11,3.68V3.6c-.05-.08-.11-.08-.21-.07Z"/><polygon class="cls-7" points="26.06 4.19 26.12 4.18 25.94 3.91 26.06 4.19"/><path class="cls-7" d="M23.77,5.38c.1,0,.19-.14.29-.16C23.87,5.35,23.61,5,23.77,5.38Z"/><path class="cls-7" d="M5.83,38.57c0-.11-.07,0-.08-.07C5.8,38.69,5.84,38.57,5.83,38.57Z"/><polygon class="cls-7" points="6.43 40.36 6.39 40.34 6.54 40.59 6.43 40.36"/><path class="cls-7" d="M7,42.05c.06-.2-.25-.59-.31-.91v-.06L6.56,41C6.69,41.34,6.93,41.79,7,42.05Z"/><path class="cls-7" d="M7.08,43.06c0-.08.12.17-.07-.22v0Z"/><path class="cls-7" d="M7,42.89c-.07-.18,0,.13,0,0Z"/><path class="cls-7" d="M7.38,43.68l-.15-.21c0,.06.07.27,0,.2C7.37,43.9,7.38,43.83,7.38,43.68Z"/><path class="cls-7" d="M7.57,43.84l-.07-.1S7.5,43.8,7.57,43.84Z"/><path class="cls-7" d="M7.35,43.51l.15.23c0-.05,0-.07-.07-.11C7.48,43.63,7.42,43.6,7.35,43.51Z"/><path class="cls-7" d="M7.31,43.36c0-.14-.08-.32.06-.11C7.17,42.82,7.11,42.93,7.31,43.36Z"/><path class="cls-7" d="M7.16,42.08l0-.18L7,41.77C7.08,41.83,7.13,42.11,7.16,42.08Z"/><path class="cls-7" d="M8,45.13S8,45,8.05,45l-.12-.15C8,44.92,8,45.09,8,45.13Z"/><path class="cls-7" d="M8.05,45l.17.22C8.12,45,8.07,44.94,8.05,45Z"/><polygon class="cls-7" points="7.74 43.81 7.45 43.45 7.78 43.89 7.74 43.81"/><polygon class="cls-7" points="8.49 46.07 8.34 45.98 8.59 46.15 8.49 46.07"/><path class="cls-7" d="M8.87,46.67c-.11-.06,0,.21-.11.13a1.36,1.36,0,0,0,.39.34A1,1,0,0,1,8.87,46.67Z"/><path class="cls-7" d="M9.36,47.3a1.92,1.92,0,0,0-.21-.16A1.16,1.16,0,0,0,9.36,47.3Z"/><path class="cls-7" d="M8.44,45.62a.29.29,0,0,0,0,.24l0-.15Z"/><path class="cls-7" d="M8.49,45.71h0l.12.2Z"/><path class="cls-7" d="M8.42,45.59l0,0S8.44,45.6,8.42,45.59Z"/><path class="cls-7" d="M8,44.49c.12.13.32.4.24.07C8.11,44.49,8.16,44.67,8,44.49Z"/><path class="cls-7" d="M8.46,45.41l-.12-.27s0,.08-.09,0Z"/><polygon class="cls-7" points="8.56 45.52 8.46 45.41 8.51 45.51 8.56 45.52"/><path class="cls-7" d="M9.14,46.83a1.22,1.22,0,0,1,.3.3c-.08-.14-.18-.29-.27-.42S9,46.68,9.14,46.83Z"/><path class="cls-7" d="M8.83,46.28l0,0S8.84,46.26,8.83,46.28Z"/><polygon class="cls-7" points="10.38 48.37 10.38 48.33 10.36 48.34 10.38 48.37"/><path class="cls-7" d="M9.17,46.67A.39.39,0,0,0,9,46.46a2.7,2.7,0,0,1,.18.25S9.19,46.7,9.17,46.67Z"/><path class="cls-7" d="M9.65,47.62c0-.07-.05-.14-.08-.22C9.58,47.48,9.62,47.62,9.65,47.62Z"/><path class="cls-7" d="M8.85,46.35h0S8.85,46.37,8.85,46.35Z"/><path class="cls-7" d="M8.85,46.35a1.1,1.1,0,0,0,.14.11,1.14,1.14,0,0,0-.14-.16Z"/><path class="cls-7" d="M11.23,48.23c-.09.06-.38-.13-.48-.41s-.38.2-.37.51c0,0,.07,0,.3.13,0-.11-.31-.57-.08-.45s.18.26.25.44c0-.21.46.23.56,0l-.27-.21S11.27,48.32,11.23,48.23Z"/><path class="cls-7" d="M10,47.9,10,47.81a1.69,1.69,0,0,1,.15.42c.17.12.22.12.26.11-.12-.15-.25-.3-.36-.46Z"/><path class="cls-7" d="M9.64,47.38c.14,0,.34.21.33,0-.21-.27-.21-.14-.37-.28.35.44-.15-.09,0,.28a2.12,2.12,0,0,1-.2-.24l.13.27h0s0,0,0,0h.05c.08.14,0,0,0,0h0l.38.42A3.18,3.18,0,0,0,9.64,47.38Z"/><path class="cls-7" d="M8.55,44.72s0,0,0,0S8.57,44.78,8.55,44.72Z"/><path class="cls-7" d="M8.6,45a.32.32,0,0,1-.13-.16c0-.11,0,0,.06,0s-.19-.21-.11,0l0,0a1.08,1.08,0,0,1,.08.51A.9.9,0,0,0,8.6,45Z"/><path class="cls-7" d="M9.12,46.17l.29.36-.05-.25,0,0C9.19,46.09,9.17,46.17,9.12,46.17Z"/><polygon class="cls-7" points="10.37 48.45 10.23 48.48 10.54 48.57 10.37 48.45"/><polygon class="cls-7" points="10.77 48.91 10.68 48.97 10.83 49.05 10.77 48.91"/><path class="cls-7" d="M41.77,55.86l.11-.09A.26.26,0,0,0,41.77,55.86Z"/><path class="cls-7" d="M40.87,56.12v.1C40.9,56.15,40.91,56.11,40.87,56.12Z"/><path class="cls-7" d="M23.05,57.45c.14.21.28.5.32.32v-.18A.56.56,0,0,1,23.05,57.45Z"/><path class="cls-7" d="M33.24,58.26l-.05-.06-.14.19Z"/><path class="cls-7" d="M33.38,57.43l.25.12A.83.83,0,0,0,33.38,57.43Z"/><path class="cls-7" d="M46.34,53.66v-.27C46.16,53.5,46.3,53.56,46.34,53.66Z"/><path class="cls-7" d="M15.4,53.14a2,2,0,0,0,.3.33C15.58,53.27,15.52,53.07,15.4,53.14Z"/><path class="cls-7" d="M42.06,58.2c.07-.07.09-.12.08-.17S42,58.15,42.06,58.2Z"/><path class="cls-7" d="M16.11,53.77l-.06-.08a2,2,0,0,1-.35-.22A.56.56,0,0,0,16.11,53.77Z"/><path class="cls-7" d="M58,39.83l0,0S58,39.8,58,39.83Z"/><path class="cls-7" d="M62,35.22a1.11,1.11,0,0,1,0,.23A.38.38,0,0,0,62,35.22Z"/><path class="cls-7" d="M12.43,50.75c-.1-.09,0,0,0,0Z"/><path class="cls-7" d="M12.32,49.94a.08.08,0,0,0,.08,0A.08.08,0,0,1,12.32,49.94Z"/><path class="cls-7" d="M17.69,53.69h0S17.68,53.66,17.69,53.69Z"/><path class="cls-7" d="M12.33,50.57a.55.55,0,0,0,.09.14Z"/><path class="cls-7" d="M12.3,50.63l-.07-.08S12.2,50.57,12.3,50.63Z"/><path class="cls-7" d="M12.57,50.87a.75.75,0,0,1-.15-.16s0,0,0,0Z"/><path class="cls-7" d="M53.26,48.63h0C53.31,48.47,53.28,48.52,53.26,48.63Z"/><polygon class="cls-7" points="26.76 56.65 26.74 56.65 26.76 56.66 26.76 56.65"/><path class="cls-7" d="M27.22,56.62c-.24.18-.33.12-.46,0l0,.55Z"/><path class="cls-7" d="M43.86,55.05,43.5,55c.23-.43.49-.45.14-.59.22.68-1.06.48-.87,1.15l-.23-.06c.05,0,.05-.06.1-.07-.46-.18-.11.57-.63.63-.19,0-.33-.06-.24-.17l-.33.28c-.11,0-.12-.1,0-.12l-.56.22v0a2.56,2.56,0,0,1-.28.42c-.17-.06.06-.09,0-.16l-.29.24c-.17-.14.06-.37.29-.4-.47-.58-.23.23-1,0l.28-.17c-.28-.31-.48-.13-.87-.29.1.11.81.44.49.68a.38.38,0,0,0-.41.15c0-.24-.22-.14-.45-.08l0-.31c-.23.14-.18.29-.31.46-.29,0-.38-.21-.48-.4-.46,0,.37.33-.16.47-.39-.06-.64.12-1.07.35-.28-.07,0-.19-.08-.26l-.22.26s0-.07,0-.11c-.19.11,0,.31-.29.42-.06.34-.69-.41-1.06,0-.1-.08,0-.19,0-.31a3.4,3.4,0,0,0-.88.56,3.49,3.49,0,0,1-.39-.19c.29.23-.07.49-.39.71a2.88,2.88,0,0,0,.25.25l-.51.15c-.07,0,0-.15.07-.27l-.09.07c-.18-.11-.09-.28,0-.45l.18.19a.87.87,0,0,0,.21-.56.31.31,0,0,1-.16.09.19.19,0,0,0,0-.13s-.07,0-.15.11L33,57.38l0,.14-.65-.21a3.22,3.22,0,0,1-1.67.83c.21-.21.07-.38.11-.65.17.32.58-.08,1,0-.2,0-.15-.18-.1-.22-.23.08-.46.17-.69.23,0-.23-.13-.19-.3-.3.09.46-.53.24-.83.35,0-.15.09-.3.42-.22-.33-.37-.54.46-.88.14.09,0,.13,0,.17,0-.21.12-.67-.06-.53-.17h.08c-.53-.15-1.64-.3-1.81,0a3.31,3.31,0,0,1,.22-.48c-.41.35-.82.64-1.25,1,.16-.28,0-1.07.5-1.13a.72.72,0,0,0-.55-.12c.07.06.1.48,0,.48-.24-.42-.18-.24-.51-.62.12.1-.16.52-.36.45.05-.06.11-.45.2-.48-.21.11-.42.19-.64.29.15,0,.14-.37.07-.53,0,.1-.43-.15-.58-.15l.18.17c-.54-.25-.78.44-1.33.2.1-.06.36-.47.1-.63a2.75,2.75,0,0,1-1.54.74l-.05-.16-.44,0A13.33,13.33,0,0,1,23,55.55c-.17-.18,0-.17-.31-.28-.06-.15.24-.1.33-.07l-.69-.35c-.07.26-.65,0-.71.23.29,0,.6,0,.89.06-.06.25-.76.53-1.24.23-.08-.15.29-.37.31-.45a.84.84,0,0,1-.56-.14l.27,0c-.24-.21-.6.09-.83-.28-.11-.07-.2-.44-.28-.32a2,2,0,0,1-.54,1.28,4.74,4.74,0,0,1-.54-.77c-.08-.3.53-.31.46-.57,0,.06-.18.08-.23.08s.14-.16-.13-.27c-.16.19-.51-.3-.22.12-.29-.08-.24-.19-.54-.34,0,.19-.53.3-.82.2.05,0,0-.15,0-.19-.49-.35-.72-.58-1.16-.91,0-.07-.19-.28,0-.3a.61.61,0,0,1-.34-.08c-.15-.35.33.19.26-.14-.09.09-.46-.1-.71-.18-.06.21.44.36.68.43-.16.23-.68.23-1.23,0s-.05-.26-.14-.28c-.65-.58-.87-.1-1.31-.72-.12-.31.2-.26.23-.4.33.19.38.45.58.61l-.19-.26a.86.86,0,0,1,.43.27c-.1-.26-1.13-.93-1.52-1.5-.12,0-.31-.13-.29,0l.18.13c.05.23-.42-.14-.26.09a1.74,1.74,0,0,1-.84-.6l.07-.18s.11.27.23.31c-.17-.06-.26-.61-.55-.58l.11.29a2.27,2.27,0,0,1-.85-.58c0,.24.07,0,.1.37,0-.33.63.68.57.24,0,.36.24.4.34.8,0,0,0-.16.19.07h.08l0,0v0h0a.26.26,0,0,1-.05-.17c.2,0,.55.33.72.38s-.11,0-.08.12l.25.09c-.07.11.2.49-.16.26l.27.27a1.3,1.3,0,0,0,.52.52c.12.14.45.17.26.15l.52.32,0,0c.45.4,1.12.53,1.5,1.17a2.57,2.57,0,0,1,.64.38l0,.15c.24.1.57.54.74.48,0,.49,1,.72,1.39,1l.1-.16a3.17,3.17,0,0,0,.93.38l.05-.16c.36,0,.71.48,1.19.7-.06.05-.17,0-.24-.11.4.66,1.33.27,1.74.77a.33.33,0,0,1,.31.14h0l0,0,.15.16a.65.65,0,0,0-.12-.15,1.58,1.58,0,0,0,.44.08v.21h0c.13.12.16-.05.13-.21l.24,0c0,.34.43,0,.49.41.16-.12.81.16,1-.17,0,0,0,.08-.05.06a.65.65,0,0,0,.5.12V58l.47-.23c.19.21.26.33,0,.46.64-.16.48,0,1-.18l-.06.16c.17,0,.49-.14.56,0a2.51,2.51,0,0,0,1.19.43,6.17,6.17,0,0,1,1.67.39c-.15-.55.44.3.52-.12.05.13.19.21,0,.31.53-.09.77.25,1.15-.07,0,.13-.12.17-.07.25s.17-.1.22,0-.08.1-.17.15c.54,0,.6-.39.64-.76.26.18.4.16.59-.08.09.12.25.25-.08.29.18,0,1.13.17,1.13-.14.06.08.26,0,.31,0a3.34,3.34,0,0,0,.84,0l-.11,0c.13-.37.32-.11.64-.18v0c.76.19.3-.15,1.06.07l-.07-.22c0-.51.68.2,1.08-.05l-.17-.11c.2-.2.75.58,1,.6.06,0-.07.08-.14.12.67.19,0-.31.47-.47.11.15,0,.44.29.41s.77-.7,1.25-.5c-.12-.1-.24-.2-.06-.35s1,.27,1.16-.22c.05,0,.08,0,.09.08.21-.17.73-.4.8-.65.5.73,1.31-.91,1.58-.17.24-.1.47-.22.7-.33l0,.08a.84.84,0,0,0,.64-.63c.13,0,.08.11.09.15.72-.17.78-.24,1.13-.86l.18.2c.06-.2,1.12-.16,1.57-.79a.19.19,0,0,1,0,.15A2.38,2.38,0,0,1,50,54.55c.41-.16.7-.38.52-.85l.26-.51c-.58.36-.19-.39-.51-.34.17-.19.71-.21.5,0h-.07c.25.47.74-.43,1-.17l1.5-1.36c.47-.44.9-.83,1.32-1.27l-.39-.17.3-.29c.14,0,.33.09.12.31.27,0,.19-.51.13-.57.52-.34.2.48.33.35l.14-.2h-.07c0-.26-.11-.39.15-.65s.26.07.34,0,.05,0,.1-.1l.38-.4-.39,0c0-.28.35-.38-.09-.42.68.1,1.44-1.49,1.68-1.59a1.71,1.71,0,0,1,.42-1c-.11,0-.45-.08-.23-.36.58.49.6-.4,1.22-.4-.44.06.39-.95-.25-.83.19-.23.26.12.52,0,.07-.77.87-1.34,1.12-2.19-.08-.05-.28,0-.34-.21l.63-.24c0-.18-.47-.36,0-.53-.1,0-.24,0-.22-.09,1.09-1.44.8-3.38,2.1-4.85-.25.18-.23,0-.19-.16-.07.11-.24-.06-.38-.07.18-.2.36-.41.53-.63-.33-.21.14-.78-.2-.93l0,.25c-.36-.38-1,.24-1.53.08.41.42-.88.67-.34,1.35-.14.09-.14-.14-.28-.11.19.19.19.37,0,.63l0-.05a7,7,0,0,1-1,2l.28,0a.65.65,0,0,1-.29.27c.31.35.21-.55.57-.2-.6.09-.5,1.39-1.15,1.34-.12.29.32,0,.2.32h-.18l.17.16a.41.41,0,0,1-.48.15s0-.15,0-.2c-.28.18-.23.72-.32.78l.21-.24A25.16,25.16,0,0,0,57,43h.14c-.08.68-.35.39-.59,1.05l0,0a.64.64,0,0,1-.11.53c0-.22-.41.14-.43-.14-.14.71,0,.38.14,1l-.23,0a.6.6,0,0,1,0,.62c0-.33-.38,0-.39-.39-.77.3-.28,1.13-1,1,.23.62.65-.29.62-.07.25,0,.16.48,0,.63s-.82-.16-1.19.3c0,0,0-.07,0-.12-.25.08-.14.46-.5.51.16.35-.25.26,0,.58l.29-.48c-.12.31.06.87-.47,1.1a.94.94,0,0,1,0-.41c-.19,0-.13.28-.33.31-.3-.32.38-.57.35-1-.24,0-.19.69-.43.25.29.58-.45.4-.38,1L52.29,49a.68.68,0,0,1-.09.35l-.11-.39c0,.45-.62.35-.72.7.44-.54.34.08.67,0-.28.88-.82-.08-1.29.64,0-.11.4-.21.37,0a.92.92,0,0,1-.52.15c-.34.45.25.13.2.41-.36-.08-.12.28-.23.53l-.18-.19c-.59.33.24.52-.33.78L50,51.49l-.16.28-.15-.27c-.11.38-.23.4-.53.54a.37.37,0,0,1,0,.59c-.25,0-.06-.27-.37,0,0-.19-.06-.41.22-.33a2.61,2.61,0,0,1-.06-.27c-.27,0-.43.3-.56.38a.35.35,0,0,1,.17,0L48.3,53c-.13,0-.11-.13-.1-.23-.08.09-.08.23-.22.35-.08-.2-.2-.37,0-.59l-.34.51c-.07-.05-.37-.06-.35-.16-.33.05-.45.74-.89.81a.24.24,0,0,1-.08.17c-.38.14-.8.07-1.09.54l-.39-.22c-.3.22.52.27,0,.64-.35.29-.27-.22-.45-.25-.12.25-.33.77-.81.63C43.64,55.1,43.76,55.12,43.86,55.05Zm-4.33,1.51c.08-.06.22-.26.31-.14C39.8,56.72,39.7,56.61,39.53,56.56Zm-7,1.27c.07-.07.18,0,.29.05A.4.4,0,0,1,32.55,57.83Zm-19-6.2h0C13.69,51.81,13.65,51.75,13.55,51.63Zm-.28-.34s-.06,0-.06,0,.12.06.2.14S13.39,51.35,13.27,51.29Zm42.23-2.5-.11,0C55.46,48.62,55.48,48.7,55.5,48.79Z"/><path class="cls-7" d="M33.36,57.52a.19.19,0,0,1,0,.12S33.44,57.56,33.36,57.52Z"/><path class="cls-7" d="M46.34,53.72h0s0,0,0-.05Z"/><path class="cls-7" d="M19.5,53.94a.35.35,0,0,1,.1.15S19.61,54,19.5,53.94Z"/><path class="cls-7" d="M11.44,49.82l.22.19a.59.59,0,0,1-.14-.22S11.5,49.89,11.44,49.82Z"/><path class="cls-7" d="M10.45,47.46s0-.07-.09-.09l0,0C10.43,47.55,10.54,47.61,10.45,47.46Z"/><path class="cls-7" d="M11.59,49.32c.07-.1-.08-.2-.23-.32l0,0C11.22,49.09,11.41,49.21,11.59,49.32Z"/><path class="cls-7" d="M11.32,49a1.42,1.42,0,0,1-.12-.13C11.14,48.86,11.24,48.9,11.32,49Z"/><path class="cls-7" d="M12.81,51c-.05-.09-.15.07-.16,0C12.47,51,13.24,51.26,12.81,51Z"/><polygon class="cls-7" points="11.75 48.94 11.7 49.09 11.86 49.09 11.75 48.94"/><path class="cls-7" d="M12.75,50.1c-.06-.09-.13-.16-.19-.24s-.05,0-.1,0C12.59,50,12.73,50.13,12.75,50.1Z"/><path class="cls-7" d="M12.46,49.83a.54.54,0,0,0-.19-.16A1.6,1.6,0,0,0,12.46,49.83Z"/><polygon class="cls-7" points="12.08 49.21 12.12 49.3 12.27 49.46 12.08 49.21"/><path class="cls-7" d="M15.27,52.26l.3.16c.07,0,0-.11-.1-.16S15.26,52.19,15.27,52.26Z"/><path class="cls-7" d="M14.75,51.29c.05.08,0,.11,0,.18l.13-.15Z"/><path class="cls-7" d="M15.54,51.84c.06,0,.49.15.14-.08C15.62,51.79,15.32,51.63,15.54,51.84Z"/><polygon class="cls-7" points="19.65 54.73 19.58 54.69 19.41 55.03 19.65 54.73"/><path class="cls-7" d="M24.05,55.59c-.33-.21-.17.21-.46,0-.12.06.23.19.12.24C24,55.78,24.06,55.87,24.05,55.59Z"/><path class="cls-7" d="M23.71,55.81l-.14,0A.37.37,0,0,0,23.71,55.81Z"/><polygon class="cls-7" points="62.53 34.32 62.7 34.08 62.48 34.22 62.53 34.32"/><path class="cls-7" d="M62.09,33.72a.53.53,0,0,0,.16,0l-.72-.28a3.52,3.52,0,0,1,.4.18C62,33.64,62.09,33.69,62.09,33.72Z"/><path class="cls-7" d="M38.74,56.07v.08c0,.07.11.07.22.06Z"/><polygon class="cls-7" points="41.97 55.46 41.91 55.47 42.1 55.72 41.97 55.46"/><path class="cls-7" d="M44.37,54.11c-.1,0-.2.15-.3.18C44.27,54.14,44.55,54.45,44.37,54.11Z"/><path class="cls-7" d="M52.83,35.35c0-.07-.07-.06-.08-.07S52.86,35.35,52.83,35.35Z"/><polygon class="cls-7" points="52.77 36.63 52.73 36.6 52.78 36.8 52.77 36.63"/><path class="cls-7" d="M52.4,37.76c.19,0,.13-.41.24-.6l0,0L52.59,37A2.83,2.83,0,0,1,52.4,37.76Z"/><path class="cls-7" d="M51.82,38.21c.08,0,0,.14.08-.13l0,0A.48.48,0,0,1,51.82,38.21Z"/><path class="cls-7" d="M51.87,38.1c0-.11-.08,0,0,0Z"/><path class="cls-7" d="M51.67,38.63l0-.17s-.13.14-.13.08C51.52,38.7,51.57,38.69,51.67,38.63Z"/><path class="cls-7" d="M51.72,38.82v-.08S51.7,38.76,51.72,38.82Z"/><path class="cls-7" d="M51.76,38.55l0,.19s.09,0,0-.08S51.76,38.64,51.76,38.55Z"/><path class="cls-7" d="M51.83,38.47c.07-.07.14-.17.13,0C52.06,38.18,51.93,38.18,51.83,38.47Z"/><path class="cls-7" d="M52.54,37.88l.09-.11,0-.12C52.62,37.71,52.49,37.87,52.54,37.88Z"/><path class="cls-7" d="M51.12,39.49s.12,0,.17,0l0-.13C51.26,39.41,51.18,39.51,51.12,39.49Z"/><path class="cls-7" d="M51.29,39.5l0,.19C51.34,39.55,51.33,39.51,51.29,39.5Z"/><polygon class="cls-7" points="51.88 38.93 51.89 38.61 51.86 38.98 51.88 38.93"/><polygon class="cls-7" points="50.77 40.07 50.75 39.94 50.77 40.16 50.77 40.07"/><path class="cls-7" d="M50.54,40.46c0-.1-.16,0-.16-.07a1,1,0,0,0-.06.34A.46.46,0,0,1,50.54,40.46Z"/><path class="cls-7" d="M50.3,40.91a.5.5,0,0,0,0-.18A.9.9,0,0,0,50.3,40.91Z"/><path class="cls-7" d="M51.09,40a.21.21,0,0,0-.17.06h.14Z"/><path class="cls-7" d="M51.06,40h0l-.09.12Z"/><path class="cls-7" d="M51.1,39.93v0S51.11,39.94,51.1,39.93Z"/><path class="cls-7" d="M51.59,39.32c0,.12-.05.35.13.2C51.69,39.42,51.59,39.5,51.59,39.32Z"/><path class="cls-7" d="M51.26,39.92l.12-.16s-.08,0-.08-.06Z"/><polygon class="cls-7" points="51.25 40.02 51.26 39.92 51.22 39.98 51.25 40.02"/><path class="cls-7" d="M50.57,40.69a.47.47,0,0,1-.1.27,1,1,0,0,0,.21-.26S50.63,40.59,50.57,40.69Z"/><path class="cls-7" d="M50.82,40.37h0S50.84,40.37,50.82,40.37Z"/><polygon class="cls-7" points="49.88 41.78 49.91 41.78 49.89 41.76 49.88 41.78"/><path class="cls-7" d="M50.71,40.69a.18.18,0,0,0,.06-.17.76.76,0,0,1-.09.18S50.7,40.72,50.71,40.69Z"/><path class="cls-7" d="M50.18,41.17l.14-.09C50.26,41.1,50.17,41.14,50.18,41.17Z"/><path class="cls-7" d="M50.77,40.39h0S50.75,40.39,50.77,40.39Z"/><path class="cls-7" d="M50.77,40.39a.56.56,0,0,0,0,.13.37.37,0,0,0,0-.14Z"/><path class="cls-7" d="M50.28,42.47c-.07-.08,0-.31.2-.4,0-.21-.31-.3-.57-.29,0,0,.07.06,0,.24.09,0,.37-.25.35-.07s-.16.15-.28.21c.17,0,0,.38.14.46l.09-.23S50.22,42.5,50.28,42.47Z"/><path class="cls-7" d="M50.13,41.49l0-.07a.67.67,0,0,1-.27.14c0,.13,0,.17,0,.2a3.5,3.5,0,0,0,.24-.3Z"/><path class="cls-7" d="M50.37,41.13c.06.12,0,.3.16.27.12-.19,0-.18,0-.32-.19.32,0-.13-.2.06a1.5,1.5,0,0,1,.09-.18l-.15.12h0s0,0,0,0h0l0,0c-.08.08,0,0,0,0h0l-.17.34A1.45,1.45,0,0,0,50.37,41.13Z"/><path class="cls-7" d="M51.83,39.8s0,0,0,0S51.81,39.84,51.83,39.8Z"/><path class="cls-7" d="M51.7,39.91a.16.16,0,0,1,0-.15c.06,0,0,0,.07,0s0-.2-.1-.08v0c-.11.12-.32.23-.32.2A.62.62,0,0,0,51.7,39.91Z"/><path class="cls-7" d="M51.07,40.57l-.12.3.17-.09-.06,0C51.18,40.62,51.1,40.61,51.07,40.57Z"/><polygon class="cls-7" points="49.81 41.77 49.74 41.67 49.77 41.91 49.81 41.77"/><polygon class="cls-7" points="49.57 42.1 49.49 42.02 49.48 42.14 49.57 42.1"/><path class="cls-7" d="M29.22,51.2l-.1,0Z"/><path class="cls-7" d="M29.92,51.35l0-.07S29.89,51.34,29.92,51.35Z"/><path class="cls-7" d="M42,48.25c-.17-.06-.38-.18-.31,0l.1.11A.29.29,0,0,1,42,48.25Z"/><path class="cls-7" d="M35.62,50.78l.05,0,.08-.15Z"/><path class="cls-7" d="M35.58,51.41l-.19-.08A.49.49,0,0,0,35.58,51.41Z"/><path class="cls-7" d="M25.47,50.28l-.17.1C25.47,50.45,25.43,50.35,25.47,50.28Z"/><path class="cls-7" d="M46.76,45.12a.78.78,0,0,0-.26.14C46.65,45.22,46.81,45.23,46.76,45.12Z"/><path class="cls-7" d="M29.81,49.63a.12.12,0,0,0-.09.08C29.78,49.7,29.82,49.67,29.81,49.63Z"/><path class="cls-7" d="M46.25,45.48l.06,0a.89.89,0,0,1,.19-.2C46.38,45.29,46.27,45.34,46.25,45.48Z"/><path class="cls-7" d="M15.17,41v0S15.16,41,15.17,41Z"/><path class="cls-7" d="M14.82,36.78a.46.46,0,0,1,.07.14A.29.29,0,0,0,14.82,36.78Z"/><path class="cls-7" d="M48.48,43.29c.05-.07,0,0,0,0Z"/><path class="cls-7" d="M49.12,43.3a.07.07,0,0,0,0,.06A.14.14,0,0,1,49.12,43.3Z"/><path class="cls-7" d="M46.11,46.65h0S46.14,46.66,46.11,46.65Z"/><path class="cls-7" d="M48.61,43.23l-.1.06A.41.41,0,0,0,48.61,43.23Z"/><path class="cls-7" d="M48.55,43.21l.06-.05S48.59,43.14,48.55,43.21Z"/><path class="cls-7" d="M48.41,43.39l.1-.1h0Z"/><path class="cls-7" d="M20.23,46.41v0C20.11,46.38,20.15,46.4,20.23,46.41Z"/><polygon class="cls-7" points="40.42 50.45 40.43 50.44 40.41 50.44 40.42 50.45"/><path class="cls-7" d="M40.14,50.65c.08-.21.16-.22.27-.21l-.23-.37Z"/><path class="cls-7" d="M27.57,50.85l.18.19c-.33.15-.51,0-.35.27.17-.46.9.19,1.05-.28l.12.13s-.05,0-.09,0c.23.29.29-.3.65-.14.12.06.19.15.09.18l.32-.06c.08,0,0,.11,0,.08l.45.05h0a2.7,2.7,0,0,1,.31-.2c.1.09-.06.05,0,.11l.26-.08c.08.14-.14.23-.31.19.16.51.22-.09.68.26l-.24,0c.11.3.31.21.56.42-.06-.1-.48-.49-.2-.58a.32.32,0,0,0,.33,0c0,.17.13.15.31.16l0,.22c.21,0,.2-.16.32-.26s.25.22.29.37c.34.06-.22-.3.19-.31a1.13,1.13,0,0,0,.84-.11c.19.09,0,.14,0,.21l.18-.18s0,.06,0,.09c.15-.07,0-.23.25-.29.06-.25.48.37.77.07.07.06,0,.14,0,.22a2,2,0,0,0,.65-.41l.29.13c-.22-.15,0-.37.23-.55l-.18-.17.34-.15s0,.11,0,.21l.06-.06c.13.07.08.2,0,.34l-.14-.13a.66.66,0,0,0-.12.43.3.3,0,0,1,.11-.07s0,.07,0,.09,0,0,.11-.09l.1.24v-.1l.49.1c.32-.28.55-.7,1.06-.88-.1.2,0,.3.05.51-.19-.2-.4.16-.69.16.15,0,.14.1.1.14l.47-.28c0,.17.12.12.27.16-.16-.32.32-.29.5-.44,0,.11,0,.24-.24.26.32.2.26-.47.57-.31-.06,0-.09,0-.1.06.11-.12.46-.13.41,0l-.06,0c.4-.06,1.18-.32,1.15-.62a2.55,2.55,0,0,1,0,.41c.13-.38.26-.75.38-1.12,0,.25.43.72.16,1a.5.5,0,0,0,.39-.15c-.07,0-.27-.28-.19-.33.32.18.2.08.57.2-.11,0-.14-.41,0-.45s.15.34.11.4l.22-.49c-.06.1.1.3.22.37-.06-.06.31-.12.39-.2H42c.42-.13.19-.64.58-.8,0,.09.08.47.3.42a2.6,2.6,0,0,1,.26-1.28l.11.06.19-.24a5,5,0,0,1-.35,1.41c.19,0,.1.09.32,0,.12,0-.06.2-.12.24l.54-.21c-.12-.18.29-.41.18-.56l-.44.5a.76.76,0,0,1,.4-.87c.13,0,.12.37.16.43,0-.09.26-.32.32-.29l-.09.18c.23-.05.17-.42.5-.4.09,0,.39.07.33,0a1.86,1.86,0,0,1-.7-.93,3.85,3.85,0,0,1,.66,0c.23.07.08.5.27.56a.34.34,0,0,1,0-.2c.11,0,.07.17.23,0-.1-.19.35-.25,0-.21.13-.17.2-.09.39-.26-.15-.05-.13-.49,0-.67,0,0,.11.07.14.08.33-.25.56-.32.86-.57.06,0,.23-.07.24.05a.33.33,0,0,1,.09-.24c.28,0-.18.21.09.24-.07-.1.12-.34.19-.51-.16-.09-.31.25-.38.42a.85.85,0,0,1,.08-.94c.19-.26.21,0,.22,0,.47-.37.06-.65.54-.88.24,0,.23.21.34.26-.14.23-.35.22-.47.35l.2-.11a.42.42,0,0,1-.21.29c.22,0,.73-.71,1.14-1,0-.09.07-.24,0-.23l-.08.13c-.18,0,.05-.32-.11-.22a1,1,0,0,1,.33-.62l.17.07s-.2.07-.21.16c0-.13.46-.16.37-.4l-.22.07c.06-.2.07-.5.26-.66-.2,0,0,.06-.28.07.29,0-.4.46,0,.44-.29,0-.27.17-.57.21,0,0,.13,0,0,.14a.17.17,0,0,1,0,.07h0a.24.24,0,0,1,.14,0c0,.16-.18.4-.21.52s0-.08-.1-.07l0,.18c-.11-.07-.38.08-.24-.17l-.18.18a.61.61,0,0,0-.37.31c-.1.06-.11.31-.11.17l-.23.33,0,0c-.3.25-.44.72-.94.83a1,1,0,0,1-.35.34l-.11-.06c-.1.14-.47.23-.44.37-.35-.12-.67.44-.94.55l.08.13a3,3,0,0,0-.48.43l.09.11c-.12.22-.53.2-.82.38,0-.06.08-.09.15-.09-.51-.09-.65.61-1.1.56a.22.22,0,0,1-.2.09s0,0,0,0H42l.13,0a1.86,1.86,0,0,0-.24.17l-.1-.13,0,0c-.12,0,0,.1.05.19a.71.71,0,0,0-.1.14c-.17-.2-.22.19-.43,0,0,.15-.47.29-.42.57,0,0-.06,0,0-.06a.4.4,0,0,0-.33.13l-.11-.17-.16.34c-.19-.07-.28-.12-.18-.32-.28.35-.26.18-.5.51l0-.14c-.1,0-.24.26-.33.18-.32-.17-1.26.28-2,.15.2.38-.33-.12-.31.18,0-.08-.15-.12-.06-.22-.31.14-.51-.07-.71.21-.05-.09.06-.15,0-.2s-.09.09-.13,0,0-.08.08-.13c-.33,0-.33.35-.33.62-.19-.1-.27-.09-.39.11-.07-.09-.17-.18,0-.22-.13,0-.75-.08-.75.13,0-.05-.17,0-.2,0a3.49,3.49,0,0,0-.56,0l.07,0c-.1.27-.22.06-.44.09v0c-.5-.2-.22.09-.7-.15l0,.17c-.07.36-.43-.23-.72-.12l.1.1c-.17.12-.39-.53-.54-.59s.06,0,.11-.06c-.38-.26-.08.22-.38.23,0-.12.11-.29-.09-.34s-.63.32-.87,0c.05.1.09.2-.05.25s-.51-.45-.76-.2a.12.12,0,0,1,0-.08c-.18,0-.55,0-.68.15,0-.61-1.07,0-.92-.51l-.49-.11,0-.05a.55.55,0,0,0-.6.05c-.06-.06,0-.09,0-.11a.81.81,0,0,0-.92-.14l0-.18c-.14.06-.53-.5-1-.5a.11.11,0,0,1,.08-.06c-.59,0-.85-1-1.33-.48l-.38,0c.36.27-.2.21-.1.4-.17-.06-.29-.41-.08-.32v0c.24-.25-.41-.39-.27-.58a14.65,14.65,0,0,1-1.88-1.69l-.11.26-.2-.2c0-.09.06-.22.21-.08,0-.18-.34-.13-.39-.09-.22-.34.33-.13.25-.21l-.14-.1v0c-.17,0-.25.06-.42-.12s.06-.17,0-.22,0,0-.06-.07l-.24-.27-.05.25c-.19,0-.23-.24-.28,0,.08-.43-.84-1.07-.85-1.27a1.06,1.06,0,0,1-.57-.46.14.14,0,0,1-.27.06c.42-.24-.11-.48,0-.84-.08.28-.46-.49-.56-.08-.09-.19.14-.12.14-.31-.42-.28-.51-.9-.87-1.36-.06,0-.09.17-.23.11l.1-.42c-.09-.08-.38.1-.29-.19,0,0-.08.13-.14.08C16,39,14.93,38.21,15.05,36.93c-.06.19-.11.1-.16,0,0,.08-.14.06-.22.1,0-.18,0-.35.06-.53-.26,0-.16-.47-.41-.45a1,1,0,0,1,.09.13c-.31-.12-.47.45-.8.53.34.13-.21.75.34,1,0,.11-.13,0-.19,0,.18,0,.24.14.28.37h0a12,12,0,0,1,.52,1.54l.12-.13a.61.61,0,0,1,0,.29c.3,0-.19-.39.14-.38-.23.35.51.93.24,1.24.11.21.13-.16.25,0l-.06.1.15,0a.28.28,0,0,1-.09.33s-.08-.07-.11-.1c0,.23.35.45.35.53l-.07-.23a7.93,7.93,0,0,0,1.3,1.57l0-.09c.4.28.16.35.53.72h0a.58.58,0,0,1,.33.23c-.16,0,0,.3-.18.24.45.28.26.11.71.16l-.06.15a.51.51,0,0,1,.42.14c-.23-.08,0,.25-.32.19.15.59.76.38.62.86.44-.09-.17-.49,0-.44,0-.17.34-.05.43.1s-.14.54.18.84c0,0,0,0-.08-.05.05.19.32.13.35.39.24-.09.19.18.41,0l-.34-.22c.21.1.6,0,.76.35a.5.5,0,0,1-.27,0c0,.14.19.1.22.24-.22.2-.41-.27-.74-.27,0,.17.49.15.18.3.4-.18.3.32.72.29l-.13.12a.53.53,0,0,1,.25.07l-.27.07c.31,0,.26.42.51.49-.39-.3,0-.24,0-.46.61.18,0,.58.58.91-.09,0-.22-.28-.05-.26a.82.82,0,0,1,.19.37c.39.23.05-.19.27-.16,0,.26.23.05.42.11l-.1.14c.37.38.32-.23.63.12l-.3.11.24.07-.15.15c.31,0,.35.08.55.26a.25.25,0,0,1,.38-.17c.09.17-.15.11.15.24-.12.06-.25.15-.3-.06,0,0-.12.06-.16.11s.37.22.47.27-.08-.06-.09-.1h.52c0,.1,0,.12-.11.14.1,0,.19,0,.32,0-.09.11-.14.26-.35.23l.47,0c0,.07.14.24.06.27.2.18.66,0,.92.19a.22.22,0,0,1,.14,0c.26.14.46.39.87.33l.11.3c.29,0-.16-.38.31-.34s0,.25.14.35c.2-.07.54-.24.78,0C27.73,50.91,27.66,50.85,27.57,50.85Zm3.4.57c-.07,0-.22.13-.25,0S30.86,51.35,31,51.42Zm5.18-.37c0,.06-.12,0-.21,0A.31.31,0,0,1,36.15,51.05Zm11.76-7h0C47.77,44.12,47.82,44.1,47.91,44Zm.25-.16s0-.05,0-.05,0,.09-.09.13S48.12,44,48.16,43.88Zm-27.81,1V45C20.23,44.92,20.29,44.92,20.35,44.9Z"/><path class="cls-7" d="M35.59,51.34a.36.36,0,0,1,0-.09S35.53,51.31,35.59,51.34Z"/><path class="cls-7" d="M25.5,50.26h0l0,0Z"/><path class="cls-7" d="M45.53,47.88a.27.27,0,0,1-.15,0S45.44,47.93,45.53,47.88Z"/><path class="cls-7" d="M49,42.59l-.1.16a.27.27,0,0,1,.15-.09S49,42.64,49,42.59Z"/><path class="cls-7" d="M50.66,41.8s0,0,0-.08l-.05,0C50.58,41.79,50.57,41.89,50.66,41.8Z"/><path class="cls-7" d="M49.48,42.75c.1.06.14-.06.2-.18v0C49.57,42.46,49.52,42.6,49.48,42.75Z"/><path class="cls-7" d="M49.7,42.54a.31.31,0,0,1,.07-.09C49.73,42.4,49.73,42.48,49.7,42.54Z"/><path class="cls-7" d="M48.36,43.56c.07,0-.08-.12,0-.12S48.18,43.86,48.36,43.56Z"/><polygon class="cls-7" points="49.83 42.89 49.7 42.84 49.74 42.97 49.83 42.89"/><path class="cls-7" d="M49.07,43.63l.17-.13s0,0,0-.08S49,43.61,49.07,43.63Z"/><path class="cls-7" d="M49.24,43.42a.25.25,0,0,0,.09-.14A.56.56,0,0,0,49.24,43.42Z"/><polygon class="cls-7" points="49.68 43.15 49.62 43.18 49.51 43.28 49.68 43.15"/><path class="cls-7" d="M47.46,45.25l-.14.19c0,.05.08,0,.13,0S47.52,45.26,47.46,45.25Z"/><path class="cls-7" d="M48.25,45.05c-.07,0-.09,0-.15,0l.12.13Z"/><path class="cls-7" d="M47.78,45.56s-.14.34.07.13C47.83,45.63,48,45.44,47.78,45.56Z"/><polygon class="cls-7" points="44.92 47.66 44.97 47.62 44.78 47.36 44.92 47.66"/><path class="cls-7" d="M42.51,49.88c.3-.05,0-.22.26-.24,0-.1-.23,0-.19-.07C42.45,49.72,42.35,49.71,42.51,49.88Z"/><path class="cls-7" d="M42.58,49.57l.06-.08S42.58,49.55,42.58,49.57Z"/><polygon class="cls-7" points="14.81 36.14 14.83 35.96 14.75 36.1 14.81 36.14"/><path class="cls-7" d="M14.36,35.94l.09-.07h-.19C14.31,35.91,14.36,35.92,14.36,35.94Z"/><path class="cls-7" d="M31.43,52l0-.06c0-.06-.07-.07-.15-.09Z"/><polygon class="cls-7" points="28.95 51.38 28.99 51.4 28.95 51.17 28.95 51.38"/><path class="cls-7" d="M26.82,51.1c.08,0,.19,0,.27,0C26.9,51.13,26.87,50.84,26.82,51.1Z"/><path class="cls-7" d="M15,26.31c0,.06.1.07.12.08S15,26.3,15,26.31Z"/><polygon class="cls-7" points="15.05 25.08 15.1 25.11 15.02 24.9 15.05 25.08"/><path class="cls-7" d="M15.39,24c-.25,0-.1.4-.23.57H15.1l.15.14C15.29,24.48,15.27,24.14,15.39,24Z"/><path class="cls-7" d="M16.05,23.61c-.09,0,0-.15-.07.12l0,0Z"/><path class="cls-7" d="M16,23.71c0,.11.1-.05,0,0Z"/><path class="cls-7" d="M16.15,23.19l0,.17c.06,0,.12-.13.14-.07C16.33,23.13,16.27,23.14,16.15,23.19Z"/><path class="cls-7" d="M16.05,23v.09S16.09,23.06,16.05,23Z"/><path class="cls-7" d="M16.06,23.26v-.18s-.11,0,0,.08C16,23.12,16,23.18,16.06,23.26Z"/><path class="cls-7" d="M16,23.34c-.08.06-.15.16-.17,0C15.75,23.61,15.92,23.63,16,23.34Z"/><path class="cls-7" d="M15.18,23.87l-.1.09,0,.12C15.1,24,15.26,23.89,15.18,23.87Z"/><path class="cls-7" d="M16.62,22.35s-.14,0-.2,0v.13C16.48,22.42,16.55,22.33,16.62,22.35Z"/><path class="cls-7" d="M16.42,22.33v-.19C16.34,22.28,16.37,22.32,16.42,22.33Z"/><polygon class="cls-7" points="15.82 22.87 15.88 23.2 15.84 22.82 15.82 22.87"/><polygon class="cls-7" points="16.9 21.77 16.96 21.9 16.88 21.68 16.9 21.77"/><path class="cls-7" d="M17.06,21.37c.06.11.19,0,.21.08a.83.83,0,0,0,0-.35A.37.37,0,0,1,17.06,21.37Z"/><path class="cls-7" d="M17.23,20.92a.58.58,0,0,0,0,.18A.62.62,0,0,0,17.23,20.92Z"/><path class="cls-7" d="M16.56,21.89a.22.22,0,0,0,.18-.06h-.15Z"/><path class="cls-7" d="M16.58,21.83h0l.07-.13Z"/><path class="cls-7" d="M16.55,21.9h0S16.54,21.89,16.55,21.9Z"/><path class="cls-7" d="M16.11,22.5c0-.12,0-.35-.22-.21C16,22.4,16.06,22.32,16.11,22.5Z"/><path class="cls-7" d="M16.36,21.91l-.11.15s.1,0,.11.07Z"/><polygon class="cls-7" points="16.35 21.81 16.36 21.91 16.39 21.85 16.35 21.81"/><path class="cls-7" d="M17,21.14a.51.51,0,0,1,.06-.27,1.1,1.1,0,0,0-.18.26S16.92,21.24,17,21.14Z"/><path class="cls-7" d="M16.77,21.47v0S16.75,21.46,16.77,21.47Z"/><polygon class="cls-7" points="17.47 20.03 17.44 20.04 17.46 20.05 17.47 20.03"/><path class="cls-7" d="M16.81,21.13a.16.16,0,0,0,0,.18.64.64,0,0,1,.06-.18S16.81,21.11,16.81,21.13Z"/><path class="cls-7" d="M17.29,20.66l-.13.08C17.22,20.73,17.32,20.69,17.29,20.66Z"/><path class="cls-7" d="M16.81,21.44h0S16.84,21.44,16.81,21.44Z"/><path class="cls-7" d="M16.81,21.44a.61.61,0,0,0,0-.13.66.66,0,0,0,0,.14Z"/><path class="cls-7" d="M16.84,19.34a.25.25,0,0,1-.11.41c0,.2.43.3.71.29-.05,0-.1-.06-.07-.26-.1,0-.33.28-.37.08s.14-.15.26-.21c-.19,0,0-.38-.27-.46l0,.22S16.9,19.3,16.84,19.34Z"/><path class="cls-7" d="M17.27,20.33l0,.07a.67.67,0,0,1,.27-.14c0-.14,0-.18-.06-.21l-.19.31Z"/><path class="cls-7" d="M17.09,20.69c-.1-.11-.06-.3-.25-.27-.09.2,0,.19,0,.33.14-.32,0,.13.22-.06a1.89,1.89,0,0,1-.06.18.86.86,0,0,1,.14-.13h0s0,0,0,0h0l0,0c.08-.07,0,0,0,0l0,0h0l.1-.35A.82.82,0,0,0,17.09,20.69Z"/><path class="cls-7" d="M15.69,22s0,0,0,0S15.71,22,15.69,22Z"/><path class="cls-7" d="M15.83,21.9s0,.07,0,.14-.06,0-.11,0,0,.21.15.09v0c.11-.11.34-.2.35-.17A.83.83,0,0,0,15.83,21.9Z"/><path class="cls-7" d="M16.42,21.26l.07-.3-.18.08.07,0C16.29,21.21,16.38,21.21,16.42,21.26Z"/><polygon class="cls-7" points="17.54 20.04 17.66 20.14 17.56 19.9 17.54 20.04"/><polygon class="cls-7" points="17.72 19.71 17.83 19.79 17.81 19.66 17.72 19.71"/><path class="cls-7" d="M35.62,9l.09,0Z"/><path class="cls-7" d="M35,8.92l0,.07S35,8.92,35,8.92Z"/><path class="cls-7" d="M24,13.18c.17,0,.39.14.3,0l-.11-.11A.23.23,0,0,1,24,13.18Z"/><path class="cls-7" d="M29.7,10.11l-.05,0-.06.16Z"/><path class="cls-7" d="M29.67,9.49l.19.06A.47.47,0,0,0,29.67,9.49Z"/><path class="cls-7" d="M39.23,9.39l.14-.12C39.21,9.23,39.26,9.32,39.23,9.39Z"/><path class="cls-7" d="M19.92,16.56a.72.72,0,0,0,.25-.14C20,16.46,19.86,16.46,19.92,16.56Z"/><path class="cls-7" d="M35.25,10.55a.09.09,0,0,0,.07-.09S35.24,10.51,35.25,10.55Z"/><path class="cls-7" d="M20.38,16.2l-.06,0a.7.7,0,0,1-.15.2C20.28,16.4,20.38,16.35,20.38,16.2Z"/><path class="cls-7" d="M50.38,16.07a0,0,0,0,1,0,0S50.4,16.08,50.38,16.07Z"/><path class="cls-7" d="M51.29,20a1.25,1.25,0,0,1-.09-.12A.32.32,0,0,0,51.29,20Z"/><path class="cls-7" d="M18.59,18.47c0,.07,0,0,0,0Z"/><path class="cls-7" d="M17.9,18.48a.08.08,0,0,0,0-.07S17.9,18.46,17.9,18.48Z"/><path class="cls-7" d="M20.3,15Z"/><path class="cls-7" d="M18.47,18.53a.24.24,0,0,0,.09-.06Z"/><path class="cls-7" d="M18.53,18.56l-.05.05S18.51,18.63,18.53,18.56Z"/><path class="cls-7" d="M18.65,18.38a.76.76,0,0,1-.09.09h0Z"/><path class="cls-7" d="M44.71,12v0C44.82,12,44.79,11.94,44.71,12Z"/><polygon class="cls-7" points="25.23 10.84 25.22 10.85 25.23 10.85 25.23 10.84"/><path class="cls-7" d="M25.46,10.6c-.05.23-.12.24-.23.25l.27.34Z"/><path class="cls-7" d="M37.2,9.11,37,8.94c.29-.18.47-.07.3-.3-.1.47-.86-.06-1,.4l-.13-.11s.05,0,.09,0c-.26-.26-.24.32-.59.22-.12,0-.2-.12-.11-.17l-.29.1c-.08,0,0-.1,0-.08a3.05,3.05,0,0,0-.43,0h0a1.37,1.37,0,0,1-.27.22c-.1-.07.06,0,0-.1l-.23.1c-.1-.12.1-.23.26-.21-.2-.48-.2.11-.66-.18l.22-.05c-.14-.28-.32-.18-.57-.34.06.09.5.41.25.53a.29.29,0,0,0-.31,0c0-.17-.13-.12-.3-.11V8.68c-.19.07-.17.18-.27.28s-.25-.18-.31-.32c-.33,0,.24.25-.14.32a1.06,1.06,0,0,0-.77.2c-.19-.06,0-.14-.05-.19l-.15.18s0-.05,0-.08,0,.22-.2.31c0,.25-.49-.29-.72,0-.08-.05,0-.13,0-.21a1.59,1.59,0,0,0-.56.46l-.28-.09c.22.13,0,.36-.16.56l.19.15-.3.17c-.05,0,0-.11,0-.2l-.05.06c-.13-.06-.09-.19,0-.33l.14.11a.61.61,0,0,0,.06-.43.18.18,0,0,1-.09.08s0-.07,0-.09,0,0-.08.1l-.12-.23v.1a4,4,0,0,0-.47,0c-.26.32-.44.74-.89,1,.07-.2,0-.28-.11-.49.2.18.36-.19.63-.22-.14,0-.14-.09-.11-.13l-.41.32c0-.17-.13-.1-.27-.14.19.3-.27.31-.42.46-.05-.11,0-.23.19-.27-.32-.18-.2.47-.5.35.05,0,.09,0,.09-.08-.09.15-.42.18-.38.06l.05,0c-.37.1-1.08.41-1,.69a2.15,2.15,0,0,1-.09-.4c-.09.37-.16.77-.22,1.16,0-.25-.5-.69-.27-1a.44.44,0,0,0-.35.18c.07,0,.29.26.22.31-.32-.14-.2-.06-.56-.14.11,0,.19.39,0,.45s-.18-.34-.15-.4l-.15.5c0-.1-.14-.29-.26-.35.06,0-.29.14-.35.23h.18c-.38.16-.08.67-.43.86,0-.09-.14-.47-.35-.41A2.81,2.81,0,0,1,23,13.39l-.11-.05-.14.25a4.4,4.4,0,0,1,.1-1.44c-.18,0-.11-.08-.3,0-.13,0,0-.2.08-.24-.16.08-.34.14-.5.24.15.17-.2.43-.07.57.11-.17.21-.36.34-.53a.76.76,0,0,1-.24.91c-.12,0-.17-.37-.22-.42s-.2.33-.27.31l.06-.19c-.22.06-.09.44-.43.42-.08.05-.39-.06-.32.05a2.19,2.19,0,0,1,.84.91,3.06,3.06,0,0,1-.63.07c-.24-.05-.16-.5-.36-.55a.28.28,0,0,1,0,.2c-.1,0-.1-.17-.23,0,.13.19-.31.25.06.2-.1.18-.19.11-.35.27.16.06.19.49.1.67A.27.27,0,0,0,20.3,15c-.28.27-.5.35-.75.62-.07,0-.24.07-.26,0a.3.3,0,0,1-.06.24c-.29,0,.16-.21-.13-.24.08.09-.07.33-.11.51.18.09.27-.26.33-.42a.93.93,0,0,1,.09,1c-.13.27-.22,0-.22,0-.39.4.08.66-.36.9-.25,0-.29-.21-.41-.25.09-.24.32-.23.42-.36l-.2.11a.34.34,0,0,1,.17-.29c-.24,0-.62.73-1,1,0,.1,0,.24.08.23l.05-.13c.19,0,0,.33.17.22a.81.81,0,0,1-.22.63l-.19-.07c.05,0,.19-.08.18-.17,0,.13-.44.19-.28.43l.21-.08c0,.21.06.51-.11.67.22,0,0-.06.28-.07-.31,0,.31-.48-.06-.46.31,0,.24-.18.56-.22-.06,0-.15,0,0-.14a.19.19,0,0,1,0-.07h0s0,0,0,0a.24.24,0,0,1-.14,0c-.07-.16.11-.4.1-.53s0,.08.13.07v-.19c.13.07.37-.1.29.16l.14-.18a.6.6,0,0,0,.31-.32c.09-.07.05-.32.08-.17l.16-.34,0,0c.24-.27.29-.75.78-.86a.72.72,0,0,1,.28-.35l.12.06c.08-.15.41-.25.37-.39.36.14.61-.44.85-.57l-.1-.14a3.14,3.14,0,0,0,.4-.46l-.11-.11c.09-.22.49-.23.73-.43,0,.06-.05.09-.12.1.49,0,.51-.68,1-.65a.18.18,0,0,1,.18-.11v0H24l-.12,0A.67.67,0,0,0,24.1,13l.12.12h0c.11,0,0-.11-.08-.19a.47.47,0,0,0,.06-.15c.2.19.18-.22.42,0,0-.15.4-.31.32-.59,0,0,.05,0,0,.06.12,0,.23,0,.29-.16l.13.17.1-.36c.19.05.28.09.21.3.22-.38.21-.22.41-.55l0,.13c.1,0,.2-.27.3-.19.32.17,1.13-.43,1.81-.32-.22-.35.33.1.27-.2.06.08.16.11.08.21.28-.17.49,0,.64-.28.06.08,0,.15,0,.2s.08-.11.12-.06,0,.09-.07.14c.31-.1.29-.37.25-.65.19.1.27.07.35-.13.08.07.19.15,0,.22.11,0,.7,0,.68-.22,0,.05.16,0,.18,0a2.26,2.26,0,0,0,.53-.06l-.07,0c.07-.28.2-.09.4-.15v0c.48.14.19-.11.67.07l0-.16c0-.36.42.18.68,0l-.1-.09c.14-.13.42.48.57.52s0,0-.1.07c.38.21.05-.22.33-.27.05.11-.06.3.12.32s.55-.38.81-.15c-.06-.09-.11-.18,0-.24s.53.35.72.09c0,0,0,0,0,.07.16-.06.51-.08.62-.22.08.58,1-.16.92.37l.47.05,0,.05a.51.51,0,0,0,.55-.12c.06,0,0,.08,0,.11.41.2.45.19.88,0v.18c.13-.08.55.43,1,.35a.07.07,0,0,1-.06.06c.53-.06,1,.81,1.33.27l.36,0c-.38-.19.15-.24,0-.4.17,0,.34.34.13.29l0,0c-.18.29.46.3.36.51A21.78,21.78,0,0,1,44,13l0-.27.23.12c0,.09,0,.23-.17.14,0,.17.33,0,.36,0,.28.25-.26.21-.17.26l.15,0,0,0c.16,0,.22-.13.41,0s0,.18,0,.22,0,0,.07.05l.27.18v-.24c.18,0,.25.18.25-.11,0,.43.95.83,1,1a.82.82,0,0,1,.6.32c0-.07.1-.28.25-.11-.38.32.18.42.06.81,0-.28.5.39.54,0,.11.16-.11.14-.09.32.44.17.59.77,1,1.13.05,0,.07-.17.22-.15l-.05.43c.09.06.34-.17.3.13,0-.06.06-.14.12-.1.44,1,1.58,1.57,1.66,2.8,0-.18.09-.11.15,0,0-.08.14-.08.21-.14l0,.51c.24-.06.24.39.45.32l-.09-.1c.34.05.41-.51.73-.67-.38,0,.09-.76-.49-.83,0-.11.13,0,.18-.09-.18,0-.27-.07-.33-.28h0a8,8,0,0,1-.72-1.34l-.11.15a.5.5,0,0,1-.05-.27c-.31,0,.24.33-.08.39.16-.37-.62-.79-.4-1.13-.14-.17-.11.17-.25,0l0-.11-.14.05a.27.27,0,0,1,0-.33.44.44,0,0,0,.11.08c0-.23-.38-.37-.39-.44l.09.2c-.47-.38-.88-1-1.45-1.26l0,.09c-.42-.19-.19-.31-.6-.58h0a.58.58,0,0,1-.35-.15c.16,0,0-.29.14-.27-.47-.19-.26-.06-.7,0l0-.14a.47.47,0,0,1-.42-.05c.22,0,0-.26.27-.24-.23-.56-.79-.2-.74-.69-.4.17.25.42.1.41,0,.16-.32.12-.43,0s0-.55-.34-.76c0,0,0,0,.09,0-.09-.16-.33,0-.42-.28-.2.14-.23-.12-.38.12l.37.11c-.23-.05-.56.18-.8-.12a.62.62,0,0,1,.26-.07c-.06-.12-.21,0-.27-.16.15-.25.45.14.76.05-.05-.15-.5,0-.25-.23-.32.28-.37-.24-.74-.07l.08-.15s-.16,0-.23,0l.21-.14c-.27.08-.32-.32-.56-.3.41.16,0,.22.14.41-.59,0-.12-.53-.72-.69.09,0,.25.21.1.24a.79.79,0,0,1-.24-.31c-.4-.11,0,.19-.21.22-.05-.24-.22,0-.41,0l.07-.16c-.4-.26-.25.29-.59,0l.25-.16-.23,0,.11-.16a.56.56,0,0,1-.53-.14.24.24,0,0,1-.33.22c-.1-.14.13-.12-.16-.2.1-.08.21-.18.28,0,0-.05.1-.08.13-.13S41,10,40.91,9.93A.27.27,0,0,1,41,10l-.48.09c-.05-.08,0-.11.08-.14s-.16,0-.29,0c.07-.12.11-.26.3-.27l-.44,0c0-.07-.15-.22-.09-.25-.2-.14-.61.11-.88-.07a.19.19,0,0,1-.12.05c-.27-.1-.48-.32-.85-.21L38.1,9c-.27,0,.19.35-.25.36s-.08-.22-.18-.31c-.17.09-.47.29-.72.06C37.05,9.07,37.11,9.11,37.2,9.11ZM34,9c.07,0,.19-.14.24-.05S34.07,9,34,9Zm-4.78.91c0-.06.11-.05.2,0A.27.27,0,0,1,29.18,9.88ZM19,17.68h0C19.12,17.61,19.07,17.63,19,17.68Zm-.21.18s0,.05,0,.05,0-.09.06-.14S18.8,17.78,18.78,17.86Zm26.15-4.47,0-.07C45,13.34,45,13.36,44.93,13.39Z"/><path class="cls-7" d="M29.67,9.56a.2.2,0,0,1,0,.08S29.73,9.58,29.67,9.56Z"/><path class="cls-7" d="M39.21,9.42h0l0,0Z"/><path class="cls-7" d="M20.71,13.77a.19.19,0,0,1,.14,0S20.79,13.71,20.71,13.77Z"/><path class="cls-7" d="M18.19,19.19l.06-.17a.2.2,0,0,1-.12.11S18.22,19.15,18.19,19.19Z"/><path class="cls-7" d="M16.59,20s0,.05,0,.08l.06,0C16.68,20,16.67,19.93,16.59,20Z"/><path class="cls-7" d="M17.67,19.05c-.12-.06-.14.06-.19.18l0,0C17.64,19.34,17.65,19.2,17.67,19.05Z"/><path class="cls-7" d="M17.47,19.26a.47.47,0,0,1,0,.1C17.47,19.41,17.45,19.33,17.47,19.26Z"/><path class="cls-7" d="M18.65,18.2c-.06,0,.12.12.06.12C18.81,18.47,18.76,17.89,18.65,18.2Z"/><polygon class="cls-7" points="17.24 18.91 17.41 18.96 17.33 18.83 17.24 18.91"/><path class="cls-7" d="M17.88,18.14l-.15.14s0,0,0,.08S17.92,18.17,17.88,18.14Z"/><path class="cls-7" d="M17.74,18.36c0,.05-.07.1-.06.14A1,1,0,0,0,17.74,18.36Z"/><polygon class="cls-7" points="17.34 18.65 17.4 18.62 17.49 18.5 17.34 18.65"/><path class="cls-7" d="M19.2,16.45l.1-.2c0-.05-.09,0-.13.05S19.14,16.44,19.2,16.45Z"/><path class="cls-7" d="M18.43,16.68c.06,0,.09,0,.16,0l-.16-.14Z"/><path class="cls-7" d="M18.8,16.15s.08-.36-.09-.13C18.74,16.07,18.64,16.28,18.8,16.15Z"/><polygon class="cls-7" points="21.34 13.97 21.3 14.01 21.52 14.26 21.34 13.97"/><path class="cls-7" d="M23.31,11.58c-.27.07.05.22-.21.26,0,.1.22,0,.2.06C23.39,11.74,23.49,11.74,23.31,11.58Z"/><path class="cls-7" d="M23.3,11.9a.36.36,0,0,0-.05.09Z"/><path class="cls-7" d="M51.39,20.58a.86.86,0,0,1,0,.16.61.61,0,0,0,.07-.14Z"/><path class="cls-7" d="M51.77,20.7l-.21.13h.24S51.73,20.75,51.77,20.7Z"/><path class="cls-7" d="M33.47,8.52v.06c0,.06.07.06.15.07Z"/><polygon class="cls-7" points="35.85 8.77 35.81 8.76 35.87 8.97 35.85 8.77"/><path class="cls-7" d="M37.88,8.78c-.08,0-.18,0-.26,0C37.8,8.76,37.86,9,37.88,8.78Z"/><text class="cls-8" transform="translate(10.76 33.02) rotate(88.59)"> </text><text class="cls-8" transform="translate(10.8 34.3) rotate(85.45)"> </text><text class="cls-8" transform="translate(10.9 35.59) rotate(82.22)"> </text><text class="cls-8" transform="translate(11.08 36.87) rotate(79)"> </text><text class="cls-8" transform="translate(11.33 38.12) rotate(75.75)"> </text><text class="cls-8" transform="translate(11.65 39.38) rotate(72.46)"> </text><text class="cls-8" transform="translate(12.05 40.61) rotate(69.18)"> </text><text class="cls-8" transform="translate(12.51 41.81) rotate(65.93)"> </text><text class="cls-8" transform="matrix(0.46, 0.89, -0.89, 0.46, 13.03, 42.98)"> </text><text class="cls-8" transform="translate(13.64 44.14) rotate(59.41)"> </text><text class="cls-8" transform="translate(14.29 45.24) rotate(56.22)"> </text><text class="cls-8" transform="matrix(0.6, 0.8, -0.8, 0.6, 15.02, 46.32)"> </text><text class="cls-8" transform="translate(15.79 47.33) rotate(49.78)"> </text><text class="cls-8" transform="matrix(0.69, 0.73, -0.73, 0.69, 16.63, 48.32)"> </text><text class="cls-8" transform="matrix(0.73, 0.69, -0.69, 0.73, 17.53, 49.26)"> </text><text class="cls-8" transform="matrix(0.76, 0.64, -0.64, 0.76, 18.45, 50.13)"> </text><text class="cls-8" transform="translate(19.45 50.96) rotate(36.88)"> </text><text class="cls-8" transform="translate(20.47 51.72) rotate(33.7)"> </text><text class="cls-8" transform="translate(21.56 52.44) rotate(30.42)"> </text><text class="cls-9" transform="matrix(0.9, 0.44, -0.44, 0.9, 22.69, 53.12)">З</text><text class="cls-9" transform="translate(24.96 54.19) rotate(19.71)">а</text><text class="cls-9" transform="translate(27.49 55.06) rotate(13)">в</text><text class="cls-9" transform="translate(30.05 55.61) rotate(6.61)">е</text><text class="cls-9" transform="translate(32.48 55.85) rotate(0.93)">д</text><text class="cls-9" transform="translate(35.14 55.83) rotate(-6.07)">е</text><text class="cls-9" transform="matrix(0.98, -0.22, 0.22, 0.98, 37.56, 55.54)">н</text><text class="cls-9" transform="matrix(0.94, -0.33, 0.33, 0.94, 40.25, 54.9)">и</text><text class="cls-9" transform="translate(42.78 53.96) rotate(-25.99)">е</text><text class="cls-10" transform="translate(25.53 39.51)">основано<tspan x="-1.55" y="3.9">в 2019 году</tspan></text><polygon class="cls-11" points="35.13 18.38 35.13 18.39 35.13 18.38 35.13 18.38"/><path class="cls-11" d="M38.65,18.13s0-.08-.08-.09-.21,0-.31,0a.8.8,0,0,0-.15,0A.23.23,0,0,0,38,18a.44.44,0,0,1-.35.07.22.22,0,0,0-.14,0c-.24.12-.48.23-.7.36a3,3,0,0,0-.43.35.71.71,0,0,0-.08.15s0,0,0,.05l-.4.64c0,.08-.09.17-.14.26h0l-.06-.13c-.07-.25-.13-.5-.21-.75a1.45,1.45,0,0,0-.28-.62.14.14,0,0,0,0,.09,1.67,1.67,0,0,0,.05.18l-.08,0-.3-.52c0-.08-.07-.18-.14-.21s-.34-.25-.58-.18h0l.07.06,0,0,0-.08h0s0-.07,0-.07l-.25,0a.2.2,0,0,0-.08.08.5.5,0,0,1-.32.22.17.17,0,0,0-.17.15s0,.06-.07.1L32.93,18l-.33-.27a.23.23,0,0,0-.28,0,.15.15,0,0,1-.17,0,.39.39,0,0,1-.11-.06c-.07-.05-.14,0-.22,0a.19.19,0,0,0-.2.11c-.16.24-.33.48-.5.71l-.36.51-.05-.09s0-.07-.05-.08a2.68,2.68,0,0,0-.58-.36,1.51,1.51,0,0,1-.17-.1,3,3,0,0,0-.31-.15,3.2,3.2,0,0,0-.42-.1,2.19,2.19,0,0,0-.36,0,.15.15,0,0,0-.1.06,1.4,1.4,0,0,0-.23.74c0,.13,0,.25,0,.38a8.34,8.34,0,0,0,.11,1.11A6.85,6.85,0,0,0,29,21.75c.05.13.09.27.13.4s0,0,0,.06c.08.22.17.43.26.65s.15.42.23.62l.11.2s0,.06,0,.09a1.22,1.22,0,0,0,.09.27c.11.2.23.39.35.58a.24.24,0,0,0,.08.09l.62.53c.13.1.27.18.4.27a2.64,2.64,0,0,0,.69.35h0a11.49,11.49,0,0,0,1.66.13c.15,0,.29,0,.43-.06h0l.51-.08a8.67,8.67,0,0,1,.88-.21,2.48,2.48,0,0,0,.32-.17l.23-.11h0l0,.07a1.33,1.33,0,0,0,.54-.37c.13-.15.24-.31.38-.45a3,3,0,0,0,.58-1,1,1,0,0,1,.18-.28,1.44,1.44,0,0,0,.4-.83c0-.15,0-.3,0-.45s.14-.6.21-.9.1-.44.13-.67.07-.71.11-1.06l0-.45a.51.51,0,0,1,.17-.34.17.17,0,0,0,.06-.16C38.72,18.33,38.75,18.22,38.65,18.13Zm-2.71,1.7c0,.16-.08.1-.14.1v-.05Zm-.18.35c0-.07,0-.08.07-.08h0l.08-.05s0-.07.06-.1a.49.49,0,0,0,.09-.33c0-.05.11-.09.15-.14.19-.26.37-.52.58-.76a.85.85,0,0,1,.33-.26c.17-.09.36-.14.53-.23a.49.49,0,0,1,.51,0l-.06,0a2.43,2.43,0,0,0-.38.13c-.15.09-.29.21-.45.3a.43.43,0,0,0-.15.15,1.39,1.39,0,0,1-.21.27c0,.05-.13.07-.17.12a3,3,0,0,0-.5,1,.15.15,0,0,1-.06.05l0,0,.07-.24c-.22.16-.15.43-.29.65Zm.78-.19v0h-.09Zm0,.1h0V20h0Zm-.34.38c0,.05,0,.09,0,.14h0v-.14Zm-.07.36s0,0,0,0,0,0,0,0,0,0,0-.05Zm-1.21-2.3s0,.07,0,.1h0v0h0v0h0C34.78,18.62,34.86,18.56,34.87,18.53Zm-1.1-.76.13,0,0,0-.14.06Zm-.5.48h0c0-.1,0-.17.17-.15h0l-.17.15h0Zm.36.05a1.24,1.24,0,0,0,.36-.19s0-.1,0-.15a.59.59,0,0,1,.47.34c.07.16.12.32.19.47a2,2,0,0,0,.26.47,2.26,2.26,0,0,1,.48.78l.1.21h0c0,.18.05.36.08.54.07.33.16.66.21,1a1.9,1.9,0,0,1,0,.75c-.08.29-.15.58-.22.86,0,0,0,0-.05.06a1.28,1.28,0,0,1,0-.17,1.61,1.61,0,0,0-.14-.64L35.1,22l-.72-1.35a.86.86,0,0,1-.07-.21c0-.26-.07-.52-.11-.77a2,2,0,0,0-.06-.23h0c0,.09,0,.25-.16.24a0,0,0,0,1,0,0,6.2,6.2,0,0,0-.49-1C33.33,18.55,33.45,18.36,33.63,18.3Zm2.22,2.9h0v0l0,0h0v0Zm.08,2.11s0,0,0,0h0l0-.07A.11.11,0,0,0,35.93,23.31Zm0,.47,0,0h0l0,0Zm-2.39-4.63,0,.08h0a.6.6,0,0,1,.09.13c0,.05.06.11,0,.16h0c-.08-.09-.19-.15-.16-.29h.07l0-.06Zm1.63,4.28h0v0l0,0h0l0,.06h0l0,0h0Zm-.78-1.86-.07-.25,0,0,.07.26Zm-.61-1.64.06.06,0,0L33.7,20Zm-.07-.1a2,2,0,0,1-.11-.26h0l.11.26ZM33.32,19l.07,0h-.08Zm-.39-.57,0-.07h0l0,.06H33v.08l-.07-.09Zm-.39-.65.07.13h0l.06,0,0,0,0-.06h0C32.54,17.94,32.54,17.93,32.54,17.82Zm.37.86s0,0,0,0l0,0,0,0Zm-.23,0,.1.1-.05.05-.07-.14Zm-1-.88h.05v0h-.05Zm-3,.74h0l0,.06h0Zm0,1.27h0a1,1,0,0,1,0,.54,2,2,0,0,1,0-.54h0Zm.75,2.69v0l-.09-.17C29.36,22.41,29.33,22.47,29.34,22.53Zm-.58-1.67h0l0-.07h0l0,.07h0Zm.86,2V22.8h0A.05.05,0,0,1,29.62,22.85Zm.3-1.19c-.1-.08-.09-.2-.11-.3a2.84,2.84,0,0,1,0-.42.09.09,0,0,0-.09-.11h0c0,.13,0,.14,0,.19l0-.19h0l0-.06a.31.31,0,0,0-.15-.39,6.3,6.3,0,0,0,.31,2.4.55.55,0,0,1-.08-.15c0-.09-.07-.17-.1-.25s-.17-.36-.25-.53a5.39,5.39,0,0,0-.29-.59,2,2,0,0,1-.29-.84,5.84,5.84,0,0,1,0-1.67,1,1,0,0,1,.06-.19l.12.16s.09-.11.16,0c-.09.1-.09.1,0,.17.17-.18,0-.3-.1-.46.19,0,.36,0,.52.06a.64.64,0,0,1,.45.28,3.63,3.63,0,0,0,.43.62s0,.08,0,.1a1.91,1.91,0,0,0-.25.65,5.17,5.17,0,0,0-.19,1.1l0,0-.07-.1v.23l.09,0c0,.35,0,.44-.09.54v-.12S29.94,21.67,29.92,21.66Zm.48-1.27-.15,1h0a3.25,3.25,0,0,1,.14-1Zm2.49,5.1s0,0,0,0,0,0,0-.05l0,.06S32.89,25.5,32.89,25.49Zm.91-.1h0l0,0v0h0v0l0,0Zm.13-.19c0-.14.07-.29.1-.43l-.16,0v-.12a3.6,3.6,0,0,1-.75.76l0,0c-.17-.37-.35-.74-.51-1.12a2.38,2.38,0,0,1-.14-.54c-.06-.31-.08-.64-.15-1a7,7,0,0,1-.11-1.11c0-.26,0-.53,0-.8a.37.37,0,0,0,0-.11c-.15,0-.18.08-.2.17a5.07,5.07,0,0,0-.09.54c0,.26,0,.52,0,.77s0,.44,0,.66a3.85,3.85,0,0,0,.24,1.25.34.34,0,0,1,0,.1l-.06,1a.8.8,0,0,1-.45-.33c-.09-.14-.2-.27-.3-.4l-.07,0c-.15-.21-.31-.42-.47-.62a.45.45,0,0,1,0-.11c-.06-.37-.12-.73-.17-1.1a4.56,4.56,0,0,1,0-1.33c0-.23.05-.47.08-.71a2.49,2.49,0,0,1,.12-.81c.06-.14.14-.27.2-.41A6.47,6.47,0,0,1,31.8,18a.92.92,0,0,0,0,.16c0,.21,0,.43,0,.64,0,0,0,.1.07.08h0c.13-.07.11-.19.1-.3s0-.12,0-.19a.65.65,0,0,1,0-.14l.06-.21a.67.67,0,0,1,.34.23,1.28,1.28,0,0,1,.11.2l.15.25.21.41h0l0-.1c0,.06,0,.14.16.11l-.08-.28c.06,0,.13,0,.16.08s.21.33.31.5.13.32.2.47.19.37.29.55a2.29,2.29,0,0,1,.18.29c0,.13.06.27.11.4s.17.47.25.7h0v-.08h0l0,.11-.07,0h0l.09.21h0V22h0l0,.07h0a.18.18,0,0,0,.11.19s.05.06.06.1a6.59,6.59,0,0,0,.22.72,2.28,2.28,0,0,1,.16,1,.67.67,0,0,1-.3.6l-.79.55ZM32,21.48s0,0,0,0h0a.13.13,0,0,1,0,.05Zm0-.14v0h.08v0Zm.09-.21-.06,0,0,0,0,.05h0v.06h0l0,0v0h.06v-.06Zm0-.1,0-.14h0V21Zm-.16-2.39v.07h0v-.07Zm2.95,6.26v0h0l-.11.08h0c0-.07,0-.09.11-.08h0Zm-.64.65,0,0,.18-.1,0,0Zm.15-.36h0a.3.3,0,0,1-.25.12h0l.25-.12h0l0,0v0Zm.14-.07h0l.06-.05,0,0Zm.58.28h0l-.21.08v0a.17.17,0,0,1,.22-.05h0Zm.12,0,0-.05.11,0,0,0ZM38,21.51h0l0-.16h0Zm0-.28h0v.05h0v-.05h0v0h0Zm.11-.54h0l0,0,0,0,.07,0h0v-.06h0Zm0-.23,0,0s0,0,0,0,0,0,0,0S38.1,20.44,38.1,20.46Zm.16-1.68a1.44,1.44,0,0,1-.18.25.71.71,0,0,0-.17.52c0,.15,0,.3,0,.45a1.15,1.15,0,0,1,0,.19c0,.36,0,.71,0,1.06a2.46,2.46,0,0,1,0,.28q-.07.48-.18,1a.49.49,0,0,1-.23.35h0l0,0h0c0-.13,0-.25,0-.38s0-.43,0-.64c-.17.13-.19.16-.21.33s0,.24,0,.36-.06.25-.08.38a1.57,1.57,0,0,1-.36.81,2.14,2.14,0,0,0-.4.58,1.07,1.07,0,0,1-.48.55,2,2,0,0,1-.25.14c-.09,0-.16.15-.29.08l-.05.06v0h-.17v.05h0l0-.05h0l.32-.22.29-.2s0,0,0-.08-.09.08-.13.11a.1.1,0,0,1-.16,0h0s0,.08,0,.09l-.26.15,0,0a2.83,2.83,0,0,0,.28-.2h0a.25.25,0,0,0,.2-.13.69.69,0,0,1,.22-.18v.1l.1-.16H36a.25.25,0,0,1,.12-.23l0,.19a1.09,1.09,0,0,0,.27-.45l-.08.11h0c0,.06,0,.12-.15.09l.15-.09h0l0-.11,0,0a3.4,3.4,0,0,0-.23.3c-.11.15-.17.34-.4.37a.8.8,0,0,0-.23.11.81.81,0,0,1,.26-.44,2.71,2.71,0,0,0,.52-.9l-.11,0,.1-.14,0,0,0-.08c.08,0,.08,0,.08-.08a1,1,0,0,0,0-.24c0-.16,0-.33,0-.49,0-.37,0-.74,0-1.11a.56.56,0,0,1,.11-.45s0-.05,0-.07h0l0,0,0,0v0h0a1.74,1.74,0,0,1,.11-.39,8.81,8.81,0,0,1,.66-1.05.63.63,0,0,1,.12-.11c.19-.15.38-.3.58-.44a2.58,2.58,0,0,1,.37-.19h0A.24.24,0,0,1,38.26,18.78Z"/><polygon class="cls-11" points="31.61 17.97 31.6 17.98 31.6 17.97 31.61 17.97"/><path class="cls-11" d="M31.88,18h0l0,0h0A0,0,0,0,1,31.88,18Z"/><polygon class="cls-11" points="32.78 18.82 32.78 18.81 32.78 18.82 32.78 18.82"/><path class="cls-11" d="M32.81,19v0h0Z"/><path class="cls-11" d="M33.15,18.7h0l0,0h0Z"/><polygon class="cls-11" points="33.24 18.36 33.23 18.36 33.23 18.35 33.24 18.36"/><polygon class="cls-11" points="33.18 18.87 33.18 18.87 33.19 18.87 33.19 18.88 33.18 18.87 33.18 18.87 33.18 18.87"/><path class="cls-11" d="M34.61,18h0A0,0,0,0,1,34.61,18Z"/><path class="cls-11" d="M34.68,18.11h0v0Z"/><path class="cls-11" d="M34.8,18.38v0l0,0s0,0,0,0Z"/><path class="cls-11" d="M34.09,20h0Z"/><polygon class="cls-11" points="34.51 21.42 34.52 21.43 34.51 21.43 34.51 21.42"/><path class="cls-11" d="M35.13,23.55h0Z"/><path class="cls-11" d="M35.17,23.91h0Z"/><path class="cls-11" d="M35.75,23.13h0l0,0h0Z"/><polygon class="cls-11" points="35.74 23.25 35.74 23.26 35.74 23.26 35.74 23.25"/><polygon class="cls-11" points="36.06 20.94 36.06 20.95 36.06 20.95 36.06 20.94"/><polygon class="cls-11" points="35.8 22.95 35.8 22.95 35.81 22.95 35.8 22.95 35.8 22.95 35.8 22.95 35.8 22.95"/><polygon class="cls-11" points="36.08 20.72 36.08 20.73 36.08 20.72 36.08 20.72 36.08 20.72 36.09 20.72 36.08 20.72"/><path class="cls-11" d="M35.8,21.12h0Z"/><polygon class="cls-11" points="35.69 20.75 35.69 20.74 35.7 20.74 35.69 20.75"/><path class="cls-11" d="M35.74,20h0l0,0h0v0h0Z"/><path class="cls-11" d="M35.83,23.42l0,0,0,0,0,0Z"/><path class="cls-11" d="M36.83,19.45Z"/><path class="cls-11" d="M38,18.45h0l0,0h0Z"/><path class="cls-11" d="M38.1,18.39h0Z"/><path class="cls-11" d="M38.19,18.28h0Z"/><path class="cls-11" d="M38.25,18.12h0Z"/><polygon class="cls-11" points="38.32 18.39 38.31 18.4 38.31 18.4 38.32 18.39"/><path class="cls-11" d="M38.46,18.12v0h0Z"/><path class="cls-11" d="M38.05,20.85l0,0h0Z"/><path class="cls-11" d="M37.12,23.62h0l0-.05h0l0,0h0Z"/><polygon class="cls-11" points="35.61 25.17 35.62 25.16 35.63 25.17 35.61 25.17"/><polygon class="cls-11" points="35.48 25.24 35.49 25.23 35.49 25.24 35.48 25.24"/><polygon class="cls-11" points="38.08 20.08 38.08 20.08 38.08 20.08 38.08 20.08 38.08 20.08 38.08 20.09 38.08 20.09 38.08 20.09 38.08 20.09 38.08 20.09 38.08 20.08 38.08 20.08 38.08 20.08"/><polygon class="cls-11" points="38.01 19.59 38.02 19.59 38.02 19.6 38.01 19.59"/><path class="cls-11" d="M38,19.7h0l0,0S38,19.69,38,19.7Z"/><path class="cls-11" d="M35.93,23.64v0h0Z"/><path class="cls-11" d="M36,23.56v0h0Z"/><path class="cls-11" d="M35.09,25.62h0Z"/><path class="cls-11" d="M35.16,25h0a0,0,0,0,1,0,0s0,0,0,0Z"/><path class="cls-11" d="M34.85,25.34h0Z"/><path class="cls-11" d="M33.91,25.33h0v0h0Z"/><path class="cls-11" d="M33.72,25.17h0Z"/><path class="cls-11" d="M31.23,25.41h0v0h0Z"/><path class="cls-11" d="M31,25.28h0l0,0,0,0h0l0,0,0,0h0Z"/><polygon class="cls-11" points="30.1 24.47 30.11 24.47 30.1 24.48 30.1 24.47"/><path class="cls-11" d="M32,21.63h0Z"/><polygon class="cls-11" points="30.2 20.5 30.2 20.49 30.21 20.5 30.2 20.5"/><polygon class="cls-11" points="29.51 23.02 29.52 23.02 29.52 23.02 29.51 23.02"/><path class="cls-11" d="M29.46,22.86h0Z"/><polygon class="cls-11" points="29.15 22.14 29.16 22.15 29.16 22.16 29.16 22.15 29.16 22.15 29.16 22.15 29.15 22.14"/><path class="cls-11" d="M29.74,21.52s0,0,0,0,0,0,0,0v0Z"/><polygon class="cls-11" points="29.7 21.16 29.7 21.15 29.71 21.15 29.7 21.16"/><polygon class="cls-11" points="29.65 20.62 29.66 20.62 29.66 20.63 29.65 20.62"/><path class="cls-11" d="M29.08,18.53h0v0a0,0,0,0,1,0,0Z"/><path class="cls-11" d="M28.71,20.65v0s0,0,0,0h0Z"/><path class="cls-11" d="M28.62,19.57h0Z"/><path class="cls-11" d="M28.56,19.48v0a0,0,0,0,0,0,0v0Z"/><polygon class="cls-11" points="31.31 24.56 31.31 24.56 31.31 24.56 31.31 24.56"/><polygon class="cls-11" points="34.03 24.77 34.03 24.77 34.03 24.76 34.03 24.77"/></g></g></svg>